<svg id="art" xmlns="http://www.w3.org/2000/svg" viewBox="0 0 864 144.098">
  <defs>
    <style>
      .cls-1 {
        fill: #fff;
      }
    </style>
  </defs>
  <title>autodesk-logo-cmyk-white-1line-large-v2</title>
  <g>
    <g>
      <g>
        <path class="cls-1" d="M99.191,179.128l-25.418,0c-9.644,0-11.779-6.132-10.182-11.137l-.16.5c-1.187,4.335.309,6.522,1.649,9.094,4.4,8.439,18.21,33.76,18.21,33.76a8.474,8.474,0,0,0,8.05,4.7c7.752,0,20.2-8.014,20.2-8.014l46.471-28.907Z" transform="translate(-63 -71.951)"/>
        <path class="cls-1" d="M155.195,75.871a6.569,6.569,0,0,0-6.207-3.914c.049,0-.187-.005-.187-.005l-40.294,0a6.5,6.5,0,0,0-6.145,3.418S103.776,72.3,108.5,72.3h.1c4.434,0,6.026,3.753,6.462,4.676.049.1,5.776,13.691,13.646,32.332,17.342,41.089,45.057,106.74,45.057,106.74h40.625S155.56,76.733,155.195,75.871Z" transform="translate(-63 -71.951)"/>
      </g>
      <path class="cls-1" d="M101.3,77.9,64.985,164.51c-1.984,5.366-.706,12.012,9.006,12.012l26.294,0,26.992-63.846C119.406,94.03,113.7,80.477,113.649,80.364c-.842-1.994-2.191-6.161-6.709-6.161A5.743,5.743,0,0,0,101.3,77.9Z" transform="translate(-63 -71.951)"/>
    </g>
    <g>
      <g>
        <g>
          <path class="cls-1" d="M329.042,178.871H313.554l-8.465-20.13H265.646l-8.588,20.13h-15l36.7-84.011h13.578Zm-43.733-66.5-14.3,33.378H299.73Z" transform="translate(-63 -71.951)"/>
          <path class="cls-1" d="M464.278,178.871H449.5V109.038H423.042V95.454h68.879l-5.684,13.584H464.278Z" transform="translate(-63 -71.951)"/>
          <path class="cls-1" d="M744.893,109.038H700.23v21.22h28.606v13.114H700.23v22.166h44.683v13.332H685.461V95.454h59.432Z" transform="translate(-63 -71.951)"/>
          <path class="cls-1" d="M849.637,178.871H835.65V95.454h13.986Z" transform="translate(-63 -71.951)"/>
        </g>
        <path class="cls-1" d="M790.2,107.489c-8.522,0-15.762,2.573-15.8,8.235-.043,6.623,4.112,8.92,19.8,14.019,17.336,5.708,26.549,11.5,26.458,25.606-.1,15.895-12.382,24.958-30.327,24.958-12.7,0-24.081-4.115-32.762-11.753l5.4-13.082c7.874,6.6,17.426,11.278,27.746,11.328,9.015.04,15.443-4.348,15.443-10.859,0-5.437-3.142-9.056-18.357-13.877-17.456-5.721-28-11.694-27.916-25.909.106-14.136,13.37-22.178,30.047-22.094s26.066,6.174,27.485,7l-5.233,11.9A45.229,45.229,0,0,0,790.2,107.489Z" transform="translate(-63 -71.951)"/>
        <polygon class="cls-1" points="804.651 63.883 841.995 23.503 824.106 23.503 786.637 63.883 827.81 106.93 845.936 106.93 804.651 63.883"/>
        <path class="cls-1" d="M537.1,94.023a43.145,43.145,0,1,0,43.151,43.144A43.144,43.144,0,0,0,537.1,94.023Zm0,72.825c-16.393,0-28.357-13.288-28.357-29.681S520.7,107.489,537.1,107.489s28.372,13.29,28.372,29.677S553.489,166.848,537.1,166.848Z" transform="translate(-63 -71.951)"/>
        <path class="cls-1" d="M627.327,95.454H595.687v83.417l31.641-.007c23.82,0,43.132-17.988,43.132-41.811S651.148,95.454,627.327,95.454Zm0,70.068-16.85.017V109.051h16.916c16.39,0,28.293,11.612,28.293,28S643.71,165.523,627.327,165.523Z" transform="translate(-63 -71.951)"/>
        <path class="cls-1" d="M406.93,141.909c0,24.867-14.595,38.278-35.756,38.278s-35.748-13.411-35.748-38.278V95.454H350.2v48.218c0,14.585,8.562,23.153,20.978,23.153s20.976-8.567,20.976-23.153V95.454H406.93Z" transform="translate(-63 -71.951)"/>
      </g>
      <g>
        <path class="cls-1" d="M927,173.292a5.563,5.563,0,1,0-5.571,5.561A5.575,5.575,0,0,0,927,173.292Zm-.831,0a4.736,4.736,0,1,1-4.74-4.792A4.612,4.612,0,0,1,926.169,173.292Z" transform="translate(-63 -71.951)"/>
        <path class="cls-1" d="M923.838,176.133l-1.342-1.894a3.139,3.139,0,0,0-.669-.76c.962-.124,1.528-.647,1.528-1.485a1.609,1.609,0,0,0-1.765-1.624H919.7v5.764h.836v-2.585c.444,0,.621.137.908.563l1.388,2.022Zm-1.379-4.14c0,.822-.681.906-1.336.906h-.584v-1.821h.854C922.177,171.078,922.459,171.456,922.459,171.993Z" transform="translate(-63 -71.951)"/>
      </g>
    </g>
  </g>
</svg>
