<?xml version="1.0" encoding="utf-8"?>
<!-- Generator: Adobe Illustrator 21.0.2, SVG Export Plug-In . SVG Version: 6.00 Build 0)  -->
<svg version="1.1" id="Layer_1" xmlns="http://www.w3.org/2000/svg" xmlns:xlink="http://www.w3.org/1999/xlink" x="0px" y="0px"
	 viewBox="0 0 618 780.5" style="enable-background:new 0 0 618 780.5;" xml:space="preserve">
<style type="text/css">
	.st0{fill:#1FBFD5;stroke:#1FBFD5;stroke-miterlimit:10;}
	.st1{fill:#1FBFD5;}
	.st2{fill:none;stroke:#1FBFD5;stroke-width:6;stroke-miterlimit:10;}
	.st3{fill:none;stroke:#1FBFD5;stroke-width:2;stroke-miterlimit:10;}
	.st4{font-family:'MyriadPro-Regular';}
	.st5{font-size:12px;}
</style>
<g>
	<g>
		<path class="st0" d="M335.1,434.9l0,5l-16.5,16.7c-0.3,0.3-0.5,0.8-0.5,1.3l-0.1,49.5c0,0.5,0.2,0.9,0.5,1.3l16.4,16.7l0,18.2
			l-13.6,0c-1,0-1.8,0.8-1.8,1.8l0,32.6c0,1,0.8,1.8,1.8,1.8l13.6,0l0,4.7c0,8.7,7,15.7,15.7,15.7l94.1,0.1c8.7,0,15.7-7,15.8-15.7
			l0.2-149.7c0-8.7-7-15.7-15.7-15.8l-94.1-0.1C342.1,419.2,335.1,426.2,335.1,434.9 M338.6,524.7c0-0.5-0.2-0.9-0.5-1.3l-16.4-16.7
			l0.1-48l16.5-16.7c0.3-0.3,0.5-0.8,0.5-1.3l0-5.8c0-6.6,5.4-12,12.1-12L444,423l-0.2,132.5l-105.3-0.1l0-9.9L338.6,524.7z
			 M323.1,547.3l1.9,0l0,28.9l-1.9,0L323.1,547.3z M326.8,576.2l0-28.9l8.1,0l0,28.9L326.8,576.2z M444.7,596.8l-94.1-0.1
			c-6.6,0-12-5.4-12-12.1l0-6.5l0-19l118.2,0.2l0,18.1l-86.1-0.1c-0.5,0-0.9,0.4-0.9,0.9c0,0.5,0.4,0.9,0.9,0.9l86.1,0.1l0,5.6
			C456.7,591.4,451.3,596.8,444.7,596.8 M457,435.1l-0.2,120.5l-10,0L447,423C452.6,423.5,457,428.7,457,435.1"/>
		<path class="st0" d="M337.7,494.9l0-25.6l0,0c0,0,0,0,0,0c0-0.1,0-0.2,0-0.2c0,0,0,0,0-0.1c0-0.1-0.1-0.1-0.1-0.2c0,0,0,0,0,0
			c0-0.1-0.1-0.1-0.2-0.2c0,0,0,0,0,0c-0.1-0.1-0.1-0.1-0.2-0.1c0,0,0,0,0,0c0,0,0,0-0.1,0c0,0-0.1,0-0.1,0c0,0-0.1,0-0.1,0
			c0,0,0,0-0.1,0l-10.1,0c-0.5,0-0.9,0.4-0.9,0.9l0,25.6c0,0,0,0,0,0c0,0,0,0.1,0,0.1c0,0,0,0,0,0.1c0,0,0,0.1,0,0.1c0,0,0,0,0,0.1
			c0,0,0,0.1,0,0.1c0,0,0,0,0,0.1c0,0,0,0.1,0.1,0.1c0,0,0,0,0,0.1c0,0,0,0,0.1,0.1c0,0,0,0,0.1,0.1c0,0,0,0,0.1,0
			c0,0,0.1,0,0.1,0.1c0,0,0,0,0,0c0,0,0,0,0.1,0c0,0,0.1,0,0.1,0c0,0,0.1,0,0.1,0c0,0,0,0,0.1,0l10.1,0
			C337.3,495.8,337.7,495.4,337.7,494.9 M328,493.9l7.9-19.8l0,19.8L328,493.9z M335.5,470.2l-7.9,19.8l0-19.8L335.5,470.2z"/>
		<path class="st0" d="M360.3,578.1c0-4-3.2-7.2-7.2-7.2c-4,0-7.2,3.2-7.2,7.2c0,4,3.2,7.2,7.2,7.2
			C357,585.3,360.3,582.1,360.3,578.1 M347.7,578.1c0-2.9,2.4-5.3,5.3-5.3c2.9,0,5.3,2.4,5.3,5.3c0,2.9-2.4,5.3-5.3,5.3
			C350.1,583.4,347.7,581,347.7,578.1"/>
		<path class="st0" d="M438.7,482.2c0-25.5-20.7-46.3-46.2-46.4c-25.5,0-46.3,20.7-46.4,46.2c0,25.5,20.7,46.3,46.2,46.4
			C417.9,528.5,438.7,507.8,438.7,482.2 M349.8,482.1c0-23.5,19.2-42.6,42.7-42.6c23.5,0,42.6,19.2,42.6,42.7
			c0,23.5-19.2,42.6-42.7,42.6C368.9,524.7,349.8,505.6,349.8,482.1"/>
		<path class="st0" d="M428.6,482.2c0-19.9-16.2-36.2-36.1-36.2c-20,0-36.2,16.2-36.2,36.1c0,19.9,16.2,36.2,36.1,36.2
			C412.3,518.4,428.6,502.2,428.6,482.2 M358.4,482.1c0-18.7,15.3-33.9,34-33.9c18.7,0,33.9,15.3,33.9,34c0,18.7-15.3,33.9-34,33.9
			C373.6,516.1,358.4,500.8,358.4,482.1"/>
		<path class="st0" d="M397.5,493.8c-0.7-3.2-2.3-6-4-9c-4.3-7.4-9.1-15.7-0.2-33.1c0.2-0.5,0.1-1-0.4-1.2c-0.5-0.2-1-0.1-1.2,0.4
			c-9.4,18.2-4.3,27.1,0.2,34.8c1.7,2.9,3.2,5.6,3.8,8.5c2.3,10.5-4,18.3-4,18.4c-0.3,0.4-0.3,1,0.1,1.3c0.4,0.3,1,0.3,1.3-0.1
			c0.2-0.3,4.9-6.2,4.9-14.8C398,497.3,397.9,495.6,397.5,493.8"/>
		<path class="st0" d="M255.3,294.2c-2.1-2.1-4.9-3.3-7.9-3.3l-64.9-0.1c-3,0-5.8,1.2-7.9,3.3c-2.1,2.1-3.3,4.9-3.3,7.9l-0.1,60.2
			l-0.1,50.5h0l0,9.7c0,3,1.2,5.8,3.3,7.9c2.1,2.1,4.9,3.3,7.9,3.3l64.9,0.1c3,0,5.8-1.2,7.9-3.3c2.1-2.1,3.3-4.9,3.3-7.9l0-9.7l0,0
			l0.1-50.5l0.1-60.2C258.6,299.1,257.5,296.3,255.3,294.2 M253.1,296.4c0.9,0.9,1.5,1.9,1.9,3c-1.5-1.6-3.5-2.7-5.7-3
			c-0.5-0.9-1.2-1.7-2-2.4l0,0C249.6,294,251.6,294.9,253.1,296.4 M185.1,430.5c-0.8-0.4-1.6-0.9-2.2-1.6c-0.2-0.2-0.4-0.4-0.6-0.7
			l64.9,0.1c-0.2,0.2-0.4,0.5-0.6,0.7c-0.7,0.7-1.4,1.2-2.2,1.6L185.1,430.5z M174.2,421.7l0-7.4l4.8,0l0,9c0,1.1,0.2,2.1,0.5,3.1
			c-1.3-0.4-2.6-1.1-3.6-2.2C175.2,423.4,174.6,422.6,174.2,421.7 M244.5,294c1.1,0.5,2.1,1.3,2.8,2.3l-64.8-0.1
			c0.2-0.2,0.4-0.5,0.6-0.7c0.7-0.7,1.4-1.2,2.2-1.6L244.5,294z M182.2,297.7l65.5,0.1c0.2,0,0.4,0,0.6,0c0.5,1,0.8,2.2,0.8,3.4l0,9
			l-68.4-0.1l0-9c0-1.2,0.3-2.4,0.8-3.4C181.7,297.7,182,297.7,182.2,297.7 M255.4,362.3l-0.1,49l-4.8,0l0.1-97.9l4.8,0L255.4,362.3
			z M249,411.3l-68.4-0.1l0.1-97.9l68.4,0.1L249,411.3z M174.4,313.2l4.8,0l-0.1,97.9l-4.8,0L174.4,313.2z M179.2,301.2l0,9l-4.8,0
			l0-7.4c0.4-0.9,1-1.8,1.7-2.5c1-1,2.3-1.7,3.6-2.1C179.4,299.1,179.2,300.1,179.2,301.2 M247.5,426.8l-65.5-0.1
			c-0.2,0-0.4,0-0.6,0c-0.5-1.1-0.8-2.2-0.8-3.4l0-9l68.4,0.1l0,9c0,1.2-0.3,2.4-0.8,3.4C248,426.8,247.8,426.8,247.5,426.8
			 M250.5,423.3l0-9l4.8,0l0,7.4c-0.4,0.9-1,1.7-1.7,2.5c-1,1-2.3,1.8-3.6,2.1C250.3,425.4,250.5,424.4,250.5,423.3 M255.5,310.2
			l-4.8,0l0-9c0-1.1-0.2-2.1-0.5-3.1c2.4,0.7,4.3,2.4,5.3,4.7L255.5,310.2z M182.5,293.9L182.5,293.9c-0.1,0.1-0.3,0.3-0.5,0.5
			c-0.6,0.6-1.1,1.2-1.5,1.9c-2.1,0.3-4,1.3-5.5,2.8c-0.1,0.1-0.1,0.1-0.2,0.2c0.4-1.1,1-2.1,1.9-3
			C178.3,294.8,180.3,293.9,182.5,293.9 M176.6,428.1c-0.9-0.9-1.5-1.9-1.9-3c0.1,0.1,0.1,0.1,0.2,0.2c1.5,1.5,3.4,2.5,5.5,2.8
			c0.4,0.7,0.9,1.3,1.5,1.9c0.2,0.2,0.3,0.3,0.5,0.5h0C180.1,430.5,178.1,429.6,176.6,428.1 M247.2,430.6L247.2,430.6
			c0.1-0.1,0.3-0.3,0.5-0.5c0.6-0.6,1.1-1.2,1.5-1.9c2.1-0.3,4-1.3,5.5-2.8c0.1-0.1,0.1-0.1,0.2-0.2c-0.4,1.1-1,2.1-1.9,3
			C251.4,429.7,249.4,430.6,247.2,430.6"/>
		<path class="st0" d="M224.1,304.9c0.7,0,1.3-0.3,1.8-0.7c0.5-0.5,0.7-1.1,0.7-1.8c0-0.7-0.3-1.3-0.7-1.8c-0.5-0.5-1.1-0.7-1.8-0.7
			l-18.3,0c-0.7,0-1.3,0.3-1.8,0.7c-0.5,0.5-0.7,1.1-0.7,1.8c0,0.7,0.3,1.3,0.7,1.8c0.5,0.5,1.1,0.7,1.8,0.7L224.1,304.9z
			 M204.8,302.4c0-0.2,0.1-0.5,0.3-0.7c0.2-0.2,0.4-0.3,0.7-0.3l18.3,0c0.3,0,0.5,0.1,0.7,0.3c0.2,0.2,0.3,0.4,0.3,0.7
			c0,0.5-0.4,0.9-0.9,0.9l-18.3,0c-0.3,0-0.5-0.1-0.7-0.3C204.9,302.8,204.8,302.6,204.8,302.4"/>
		<path class="st0" d="M205.7,418.7c-0.6,0.6-0.7,1.1-0.7,1.5c0,0.8,0.5,2,3.2,2.9c1.8,0.6,4.1,0.9,6.6,0.9c4.1,0,7.7-0.9,9.1-2.3
			c0.6-0.6,0.7-1.1,0.7-1.5c0-2.5-4.9-3.8-9.8-3.8C210.6,416.4,207,417.3,205.7,418.7 M223,420.3c0,0.1-0.1,0.3-0.2,0.4
			c-0.9,0.9-4,1.8-8,1.8c-2.3,0-4.5-0.3-6.1-0.8c-1.7-0.6-2.1-1.2-2.1-1.4c0-0.1,0.1-0.3,0.2-0.4c0.9-0.9,4-1.8,8-1.8
			c2.3,0,4.5,0.3,6.1,0.8C222.6,419.4,223,420,223,420.3"/>
		<path class="st0" d="M337.7,361.3l0,11.6l113.1,0.2l0-11.6l-5.9,0l0-6.2l5.9,0l0-32.1l-39.6-0.1l0,6.6l-6.2,0l0-6.6l-67.3-0.1
			l0,32.1l6.1,0l0,6.2L337.7,361.3z M340.4,352.9l-0.1-27.3l62.1,0.1l0.1,6.6l11.3,0l0.2-6.7l34.5,0l-0.2,27.3l-5.6,0l0,10.9l5.6,0
			l0,6.4l-107.8-0.2l0-6l5.8,0l0-11.3L340.4,352.9z"/>
		<path class="st0" d="M421.1,365.7l10,0c2.1,0,3.8-1.7,3.8-3.8l0-17.8c0-2.1-1.7-3.8-3.8-3.8l-10,0c-2.1,0-3.8,1.7-3.8,3.8l0,17.8
			C417.3,364,419,365.7,421.1,365.7 M420.1,343.5c0-0.4,0.3-0.7,0.7-0.7l10.7,0c0.4,0,0.7,0.3,0.7,0.7l0,19.1c0,0.4-0.3,0.7-0.7,0.7
			l-10.7,0c-0.4,0-0.7-0.3-0.7-0.7L420.1,343.5z"/>
		<path class="st0" d="M399.9,365.7l10,0c2.1,0,3.8-1.7,3.8-3.8l0-17.8c0-2.1-1.7-3.8-3.8-3.8l-10,0c-2.1,0-3.8,1.7-3.8,3.8l0,17.8
			C396.1,364,397.8,365.7,399.9,365.7 M398.9,343.5c0-0.4,0.3-0.7,0.7-0.7l10.7,0c0.4,0,0.7,0.3,0.7,0.7l0,19.1
			c0,0.4-0.3,0.7-0.7,0.7l-10.7,0c-0.4,0-0.7-0.3-0.7-0.7L398.9,343.5z"/>
		<path class="st0" d="M378.7,365.6l10,0c2.1,0,3.8-1.7,3.8-3.8l0-17.8c0-2.1-1.7-3.8-3.8-3.8l-10,0c-2.1,0-3.8,1.7-3.8,3.8l0,17.8
			C374.9,363.9,376.6,365.6,378.7,365.6 M377.7,343.4c0-0.4,0.3-0.7,0.7-0.7l10.7,0c0.4,0,0.7,0.3,0.7,0.7l0,19.1
			c0,0.4-0.3,0.7-0.7,0.7l-10.7,0c-0.4,0-0.7-0.3-0.7-0.7L377.7,343.4z"/>
		<path class="st0" d="M357.5,365.6l10,0c2.1,0,3.8-1.7,3.8-3.8l0-17.8c0-2.1-1.7-3.8-3.8-3.8l-10,0c-2.1,0-3.8,1.7-3.8,3.8l0,17.8
			C353.7,363.9,355.4,365.6,357.5,365.6 M356.5,343.4c0-0.4,0.3-0.7,0.7-0.7l10.7,0c0.4,0,0.7,0.3,0.7,0.7l0,19.1
			c0,0.4-0.3,0.7-0.7,0.7l-10.7,0c-0.4,0-0.7-0.3-0.7-0.7L356.5,343.4z"/>
		<path class="st0" d="M226.4,713.4c0-0.8,0.6-1.5,1.5-1.5c0.8,0,1.5,0.7,1.4,1.5c0,0.8-0.6,1.5-1.5,1.5
			C227,714.9,226.4,714.3,226.4,713.4 M216.2,736.8c0,7.2,5.6,13,12.7,13l177.9,0.2c7.1,0,12.8-5.8,12.8-13l0.1-72.8
			c0-7.2-5.7-13-12.8-13L229,651c-7.1,0-12.7,5.8-12.7,13L216.2,736.8z M219.1,736.8l0.1-72.8c0-5.6,4.4-10.1,9.8-10.1l177.9,0.3
			c5.5,0,9.9,4.5,9.9,10.1l-0.1,72.8c0,5.6-4.5,10.1-9.9,10.1l-177.9-0.3C223.5,746.9,219.1,742.4,219.1,736.8 M226.4,707.6l0-14.5
			c0-0.8,0.7-1.5,1.5-1.5c0.8,0,1.5,0.7,1.5,1.5l0,14.5c0,0.8-0.7,1.5-1.5,1.5C227,709.1,226.4,708.4,226.4,707.6 M399.2,700.6
			c0,4,3.3,7.4,7.4,7.4c4,0,7.2-3.3,7.2-7.4c0-4-3.1-7.4-7.2-7.4C402.5,693.3,399.2,696.6,399.2,700.6 M401.9,700.6
			c0-2.5,2.1-4.4,4.6-4.4c2.5,0,4.4,2,4.4,4.4c0,2.5-2,4.4-4.4,4.4C404.1,705,401.9,703.1,401.9,700.6 M238,744l156.9,0.2
			c0.8,0,1.5-0.7,1.5-1.5l0.1-84.3c0-0.8-0.7-1.5-1.5-1.5l-156.9-0.2c-0.8,0-1.5,0.7-1.5,1.5l-0.1,84.3
			C236.5,743.6,237.2,744,238,744 M239.5,741.1l0.1-81.4l154,0.2l-0.1,81.4L239.5,741.1z"/>
		<path class="st1" d="M618,501.3c0-0.2,0-0.4,0.1-0.6l-82.6-0.1l0.3-176.6l82.4,0.1c0-0.3-0.1-0.5-0.1-0.8v-3.2l-84.3-0.1
			c-1.5,0-2,1.3-2,2l-0.3,180.7c0,1,1,2,2,2l84.9,0.1C618.1,503.7,618,502.5,618,501.3z"/>
		<path class="st1" d="M618.4,524.9l-83.2-0.1c-4.3,0-7.8-3.5-7.8-7.9l0.3-201.1c0-4.4,3.4-7.8,7.8-7.8l83.1,0.1
			c-0.1-1.3-0.1-2.7-0.1-4l-82.9-0.1c-6.5,0-11.8,5.2-11.8,11.8l-0.3,201.1c0,6.5,5.3,11.9,11.8,11.9l83.5,0.1
			C618.5,527.5,618.4,526.2,618.4,524.9z"/>
		<ellipse transform="matrix(1.094374e-03 -1 1 1.094374e-03 285.2613 913.6437)" class="st1" cx="600" cy="314" rx="2" ry="2"/>
		<path class="st1" d="M593.6,514.7c0,3.3,2.6,6.1,5.9,6.1c3.3,0,6.1-2.8,6.1-6.1c0-3.3-2.8-6.1-6.1-6.1
			C596.3,508.7,593.7,511.4,593.6,514.7z M601.7,514.8c0,1.1-0.9,1.9-2.1,1.9c-1.1,0-1.9-0.8-1.9-1.9c0-1.1,0.8-1.9,1.9-1.9
			C600.7,512.8,601.7,513.6,601.7,514.8z"/>
		<g>
			<path class="st0" d="M594,685.1l0.2-112.9c0-0.6-0.4-1.1-1.1-1.1l-10.8,0l0-7c0-0.6-0.4-1.1-1.1-1.1l-18.4,0
				c-0.6,0-1.1,0.4-1.1,1.1l0,7l-16.5,0l0-7c0-0.6-0.4-1.1-1.1-1.1l-9.7,0c-0.6,0-1.1,0.4-1.1,1.1l0,7l-9.6,0
				c-0.6,0-1.1,0.4-1.1,1.1L522.3,685c0,0.6,0.4,1.1,1.1,1.1l69.5,0.1C593.4,686,594,685.6,594,685.1 M524.7,683.8l0.2-110.7l8.4,0
				l0,8c0,0.6,0.4,1.1,1.1,1.1l9.7,0c0.6,0,1.1-0.4,1.1-1.1l0-8l16.5,0l0,8c0,0.6,0.4,1.1,1.1,1.1l18.4,0c0.6,0,1.1-0.4,1.1-1.1l0-8
				l9.7,0l-0.2,110.8l-67.2-0.1V683.8z"/>
			
				<rect x="529.7" y="636.1" transform="matrix(1.351400e-03 -1 1 1.351400e-03 -93.5749 1188.2305)" class="st0" width="36.9" height="9.7"/>
			<path class="st0" d="M542.3,659.4l0.1-36.8c0-0.6,0.4-1.1,1.1-1.1l9.7,0c0.6,0,1.1,0.4,1.1,1.1l-0.1,36.8c0,0.6-0.4,1.1-1.1,1.1
				l-9.7,0C542.7,660.4,542.3,659.9,542.3,659.4 M544.4,623.5l0,34.7l7.6,0l0-34.7L544.4,623.5z"/>
			
				<rect x="543.9" y="632.1" transform="matrix(1.402300e-03 -1 1 1.402300e-03 -48.9679 1217.2471)" class="st0" width="82.1" height="2.1"/>
			
				<rect x="488.6" y="631" transform="matrix(1.425300e-03 -1 1 1.425300e-03 -102.0631 1161.8118)" class="st0" width="84.3" height="2.1"/>
			<path class="st0" d="M544.8,606.2c0-5.4,4.4-9.7,9.7-9.6c5.4,0,9.6,6.9,9.6,9.7c0,2.8-4.3,9.7-9.7,9.6
				C549,616,544.8,611.6,544.8,606.2 M561.7,606.2c0-1.5-3.3-7.2-7.2-7.2c-3.9,0-7.2,3.3-7.2,7.2c0,3.9,3.3,7.2,7.2,7.2
				C558.4,613.5,561.7,607.7,561.7,606.2"/>
			<path class="st0" d="M562.5,606.2c0-2.8,4.3-9.7,9.7-9.6c5.4,0,9.7,4.3,9.7,9.7c0,5.4-4.4,9.7-9.7,9.7
				C566.7,616,562.5,609,562.5,606.2 M579.3,606.2c0-3.9-3.3-7.2-7.2-7.2c-3.9,0-7.2,5.7-7.2,7.2c0,1.5,3.3,7.2,7.2,7.2
				C576.1,613.6,579.3,610.3,579.3,606.2"/>
			<path class="st0" d="M571.6,608.7l0-4.8c0-0.5,0.3-0.8,0.8-0.8c0.5,0,0.8,0.3,0.8,0.8l0,4.7c0,0.5-0.3,0.8-0.8,0.8
				C572,609.5,571.6,609.1,571.6,608.7"/>
			<path class="st0" d="M569.4,606.2c0-0.5,0.3-0.8,0.8-0.8l4.8,0c0.5,0,0.8,0.3,0.8,0.8c0,0.5-0.3,0.8-0.8,0.8l-4.7,0
				C569.7,607,569.4,606.7,569.4,606.2"/>
			<path class="st0" d="M551.2,606.2c0-0.5,0.3-0.8,0.8-0.8l4.8,0c0.5,0,0.8,0.3,0.8,0.8c0,0.5-0.3,0.8-0.8,0.8l-4.7,0
				C551.5,607,551.2,606.7,551.2,606.2"/>
		</g>
		<path class="st2" d="M488.2,274.4l-305.7-0.4c-5.4,0-9.8-4.4-9.8-9.8l0.3-216.4c0-5.4,4.4-9.8,9.8-9.8l305.7,0.4
			c5.4,0,9.8,4.4,9.8,9.8L498,264.6C498,270,493.6,274.4,488.2,274.4z"/>
		
			<ellipse transform="matrix(1.375200e-03 -1 1 1.375200e-03 179.1239 491.2778)" class="st2" cx="335.5" cy="156" rx="26.6" ry="26.6"/>
		<g>
			<g transform="translate(-30 -200)">
				<g>
					<path class="st0" d="M593.4,379.6v91.6c0,1.6,1.3,2.9,2.8,2.9h31.1c1.6,0,2.8-0.9,2.8-2.5v-92.1c3.1,0,5.7-2.5,5.7-5.7v-22.6
						h2.8V340h-2.8v-5.7c0-3.1-2.5-5.7-5.7-5.7v-91.8c0-1.6-2.8-2.7-2.8-2.7h-31.1c0,0-2.8,0.9-2.8,2.5v92c-3.1,0-5.7,2.5-5.7,5.7
						V374C587.7,377.1,590.2,379.6,593.4,379.6z M627.3,471.7l-31.1-0.1v-92h31.1V471.7z M596.2,237.1h31.1v91.6h-31.1V237.1z
						 M590.5,334.3c0-1.6,1.3-2.8,2.8-2.8h36.8c1.6,0,2.8,1.3,2.8,2.8V374c0,1.6-1.3,2.8-2.8,2.8h-36.8c-1.6,0-2.8-1.3-2.8-2.8
						V334.3z"/>
					<path class="st0" d="M630.2,334.3h-36.8V374h36.8V334.3z M627.3,371.1h-31.1v-34h31.1V371.1z"/>
				</g>
			</g>
			<g>
				<path class="st0" d="M581.8,265.3c2.5,0,4.5-2.1,4.5-4.6c0-2.5-2-4.6-4.5-4.6c-2.5,0-4.6,2.1-4.6,4.6
					C577.2,263.2,579.3,265.3,581.8,265.3"/>
				<path class="st0" d="M581.8,262.2c-0.8,0-1.6-0.6-1.6-1.5c0-0.8,0.7-1.5,1.6-1.5c0.8,0,1.5,0.6,1.5,1.5
					C583.3,261.6,582.6,262.2,581.8,262.2"/>
			</g>
			<g>
				<path class="st0" d="M581.8,247.8c2.5,0,4.5-2.1,4.5-4.6c0-2.5-2-4.6-4.5-4.6c-2.5,0-4.6,2.1-4.6,4.6
					C577.2,245.7,579.3,247.8,581.8,247.8"/>
				<path class="st0" d="M581.8,244.7c-0.8,0-1.6-0.6-1.6-1.5c0-0.8,0.7-1.5,1.6-1.5c0.8,0,1.5,0.6,1.5,1.5
					C583.3,244.1,582.6,244.7,581.8,244.7"/>
			</g>
			<g>
				<path class="st0" d="M581.8,229c2.5,0,4.5-2.1,4.5-4.6c0-2.5-2-4.6-4.5-4.6c-2.5,0-4.6,2.1-4.6,4.6
					C577.2,226.9,579.3,229,581.8,229"/>
				<path class="st0" d="M581.8,225.9c-0.8,0-1.6-0.6-1.6-1.5c0-0.9,0.7-1.5,1.6-1.5c0.8,0,1.5,0.6,1.5,1.5
					C583.3,225.3,582.6,225.9,581.8,225.9"/>
			</g>
			<path class="st1" d="M593.7,43.5c0,1.9-1.5,3.4-3.4,3.4h-17.2c-1.9,0-3.4-1.5-3.4-3.4l0,0c0-1.9,1.5-3.4,3.4-3.4h17.2
				C592.2,40.2,593.7,41.7,593.7,43.5L593.7,43.5z"/>
		</g>
		<g>
			<g>
				<path class="st3" d="M76.6,590.7c6.9-19.6,20.3-53.1,37.7-77.1l5.9-3.2L76.6,590.7z"/>
				<polygon class="st3" points="113.3,510.7 83.1,493.6 120.3,506.9 				"/>
				<polygon class="st3" points="249.3,492.7 219.2,510.1 212.2,506.4 				"/>
				<path class="st3" d="M212.3,509.8l5.9,3.2c17.7,23.9,31.4,57.2,38.5,76.7L212.3,509.8z"/>
			</g>
			<g>
				<path class="st2" d="M240.8,474.9l-148.9,0.8c-18.8,0.1-34,15.5-33.9,34.3l0.4,81.3c0.1,18.8,15.5,34,34.3,33.9l148.9-0.8
					c18.8-0.1,34-15.5,33.9-34.3l-0.4-81.3C275,490,259.6,474.8,240.8,474.9z"/>
			</g>
		</g>
	</g>
	<g>
		
			<image style="overflow:visible;enable-background:new    ;" width="2896" height="3292" xlink:href="82F4CB77.png"  transform="matrix(0.2395 0 0 0.2397 18.9374 -2.348)">
		</image>
	</g>
	<text transform="matrix(1 0 0 1 306 396)" class="st4 st5">1522 </text>
</g>
</svg>
