<svg id="Artwork" xmlns="http://www.w3.org/2000/svg" viewBox="0 0 253.95 124.64">
  <defs>
    <style>
      .cls-1 {
        fill: #0077c5;
      }

      .cls-2 {
        fill: none;
      }
    </style>
  </defs>
  <title>Intuit_2016_RGB[2]</title>
  <g id="Logo_Clearspace" data-name="Logo Clearspace">
    <g id="Logo">
      <path id="_" data-name=" " class="cls-1" d="M216.41,84.72a.94.94,0,0,0-1.11-.88h-1v3h.53V85.59h.39l.7,1.25h.65l-.81-1.31A.79.79,0,0,0,216.41,84.72Zm-1.62.43v-.83h.49a.48.48,0,0,1,.58.353.473.473,0,0,1,.01.057.53.53,0,0,1-.6.45l-.05-.01h-.43Zm.5-2.45a2.654,2.654,0,1,0,.01,0h-.01Zm0,4.89a2.24,2.24,0,1,1,2.24-2.24h0A2.25,2.25,0,0,1,215.29,87.59Z"/>
      <path id="Intuit" class="cls-1" d="M35.98,51.59h9v36h-9Zm38.09-1.05a12.26,12.26,0,0,0-11.15,6.78h-.15V51.55H54.22v36h9V67.75c0-4.8,2.7-9.75,8.4-9.75s6.75,5.33,6.75,9.6v20h9V65.1c0-7.36-3.9-14.56-13.27-14.56Zm77.46,20.85c0,4.8-2.7,9.75-8.4,9.75s-6.75-5.32-6.75-9.6v-20h-9v22.5c0,7.35,3.9,14.55,13.28,14.55a12.25,12.25,0,0,0,11.17-6.83h.15v5.78h8.55v-36h-9V71.39Zm18.21,16.2h9v-36h-9Zm-77.81-28h10.09v28h9v-28h10.09v-8H91.98v8Zm14.59-12.67a3.882,3.882,0,1,1,.03-.04Zm78.53,4.69v8h10.09v28h9v-28h10.09v-8H185.05Zm14.59-4.69a3.882,3.882,0,1,1,.03-.04Z"/>
    </g>
    <rect id="Clearspace" class="cls-2" width="253.95" height="124.64"/>
  </g>
</svg>
