<svg id="content" xmlns="http://www.w3.org/2000/svg" viewBox="0 0 1245.521 703.179">
  <defs>
    <style>
      .cls-1 {
        fill: #fff;
      }

      .cls-2 {
        fill: none;
      }
    </style>
  </defs>
  <title>logo_lockup_cloud_platform_icon_vertical_new_white</title>
  <g>
    <path class="cls-1" d="M821.848,370.271a71.989,71.989,0,1,1-71.989-71.989A71.989,71.989,0,0,1,821.848,370.271Z" transform="translate(-128 -129.821)"/>
    <path class="cls-1" d="M1016.473,351.877l-53.969-94.1H852.548L917.01,369.784h0l-17.374,30.188-65.489,113.79-20.2,35.1-35.013,60.88h89.338a35.991,35.991,0,0,0,31.222-18.086l116.982-203.969A35.989,35.989,0,0,0,1016.473,351.877Z" transform="translate(-128 -129.821)"/>
    <path class="cls-1" d="M668.424,513.763,585.561,369.785h0l-54.961-95.5-44.5,77.591a35.989,35.989,0,0,0,0,35.816L603.081,591.662A35.993,35.993,0,0,0,634.3,609.748H741.742l55.416-95.985Z" transform="translate(-128 -129.821)"/>
    <path class="cls-1" d="M944.167,225.807l-44.677-77.9a35.991,35.991,0,0,0-31.222-18.087H634.3a35.992,35.992,0,0,0-31.223,18.087l-54.2,94.5,55.081,95.4,64.459-112Z" transform="translate(-128 -129.821)"/>
  </g>
  <rect class="cls-2" y="567.179" width="416" height="136"/>
  <g>
    <path class="cls-1" d="M572.633,754.174c0-27.265,20.608-47.874,47.617-47.874,13.825,0,25.474,5.5,33.666,14.977l-8.192,7.936c-6.4-7.936-14.977-11.648-25.474-11.648-19.328,0-35.585,14.081-35.585,36.61s16.257,36.61,35.585,36.61c11.521,0,21.25-5.376,28.162-13.313l8.191,8.192a47.2,47.2,0,0,1-36.354,16.385C593.241,802.048,572.633,781.439,572.633,754.174Z" transform="translate(-128 -129.821)"/>
    <path class="cls-1" d="M665.815,800V708.348h11.776V800Z" transform="translate(-128 -129.821)"/>
    <path class="cls-1" d="M750.938,768.639c0,19.073-13.44,33.409-32.258,33.409s-32.258-14.337-32.258-33.409,13.441-33.41,32.258-33.41S750.938,749.566,750.938,768.639Zm-11.776,0c0-14.337-9.984-22.657-20.481-22.657s-20.48,8.32-20.48,22.657,9.984,22.657,20.48,22.657S739.161,782.975,739.161,768.639Z" transform="translate(-128 -129.821)"/>
    <path class="cls-1" d="M804.185,800v-8.7h-.512c-3.456,5.76-11.265,10.752-19.841,10.752-16.129,0-23.937-10.881-23.937-26.369v-38.4h11.776v36.482c0,13.057,6.528,17.537,15.489,17.537,10.24,0,16.513-9.857,16.513-19.457V737.277h11.776V800Z" transform="translate(-128 -129.821)"/>
    <path class="cls-1" d="M824.917,768.639c0-19.2,13.952-33.41,29.825-33.41,9.984,0,17.793,4.992,21.377,10.752h.513l-.513-8.7V708.348H887.9V800H876.632v-8.7h-.513c-3.584,5.76-11.393,10.752-21.377,10.752C838.869,802.048,824.917,787.839,824.917,768.639Zm51.715,0c0-14.337-9.473-22.657-19.97-22.657s-19.969,8.576-19.969,22.657,9.473,22.657,19.969,22.657S876.632,782.975,876.632,768.639Z" transform="translate(-128 -129.821)"/>
    <path class="cls-1" d="M920.018,800V708.348h31.234c15.232,0,28.673,11.265,28.673,27.265s-13.44,27.265-28.673,27.265H931.795V800Zm31.49-48.386a16.005,16.005,0,1,0,0-32H931.795v32Z" transform="translate(-128 -129.821)"/>
    <path class="cls-1" d="M988.242,800V708.348h11.775V800Z" transform="translate(-128 -129.821)"/>
    <path class="cls-1" d="M1010.129,781.055c0-14.209,12.8-21.889,27.521-21.889,8.447,0,14.592,2.432,17.024,3.84v-1.792c0-9.473-7.552-15.233-16.385-15.233-6.528,0-12.8,3.2-14.978,9.088l-10.752-4.608c2.176-5.76,9.729-15.233,25.473-15.233,15.361,0,27.906,9.216,27.906,26.881V800h-11.265v-8.7h-.513c-3.455,5.248-9.855,10.752-20.608,10.752C1020.753,802.048,1010.129,794.112,1010.129,781.055Zm44.546-8.064s-4.992-4.1-14.978-4.1c-12.416,0-17.28,6.656-17.28,12.417,0,6.656,6.913,9.985,13.057,9.985C1044.818,791.3,1054.675,783.231,1054.675,772.991Z" transform="translate(-128 -129.821)"/>
    <path class="cls-1" d="M1082.961,780.927v-32.9h-11.009V737.277h11.009v-19.2h11.776v19.2h15.36V748.03h-15.36v32c0,7.04,2.944,10.24,8.448,10.24a11.873,11.873,0,0,0,5.376-1.024l4.1,10.112a22.836,22.836,0,0,1-9.473,1.664C1090,801.024,1082.961,793.728,1082.961,780.927Z" transform="translate(-128 -129.821)"/>
    <path class="cls-1" d="M1159.5,709.5l-4.1,10.113a11.537,11.537,0,0,0-5.377-1.024c-5.888,0-10.5,3.456-10.5,10.753v7.936h16.385V748.03h-16.385V800h-11.776V748.03h-11.776V737.277h11.776v-8.321c0-12.8,9.089-21.121,22.272-21.121A22.833,22.833,0,0,1,1159.5,709.5Z" transform="translate(-128 -129.821)"/>
    <path class="cls-1" d="M1223.633,768.639c0,19.073-13.44,33.409-32.258,33.409s-32.258-14.337-32.258-33.409,13.441-33.41,32.258-33.41S1223.633,749.566,1223.633,768.639Zm-11.776,0c0-14.337-9.984-22.657-20.481-22.657s-20.48,8.32-20.48,22.657,9.984,22.657,20.48,22.657S1211.856,782.975,1211.856,768.639Z" transform="translate(-128 -129.821)"/>
    <path class="cls-1" d="M1233.1,800V737.277h11.265v10.24h.513c2.56-7.168,11.648-11.777,18.176-11.777a21.449,21.449,0,0,1,8.833,1.536l-4.479,11.009a17.591,17.591,0,0,0-6.273-.9c-8.064,0-16.256,6.784-16.256,18.3V800Z" transform="translate(-128 -129.821)"/>
    <path class="cls-1" d="M1278.285,737.277h11.264v8.7h.512c3.585-6.016,11.905-10.752,19.33-10.752,10.111,0,16.641,4.608,19.84,12.032a25.515,25.515,0,0,1,21.89-12.032c15.36,0,22.4,10.88,22.4,26.369V800h-11.777V763.39c0-13.056-4.992-17.409-13.952-17.409-9.6,0-16,9.729-16,19.329V800h-11.776V763.39c0-13.056-4.992-17.409-13.952-17.409-9.6,0-16,9.729-16,19.329V800h-11.775Z" transform="translate(-128 -129.821)"/>
  </g>
  <path class="cls-1" d="M128.723,749.565c0-28.929,24.321-52.482,53.251-52.482a50.009,50.009,0,0,1,35.97,14.465L207.831,721.66a36.562,36.562,0,0,0-25.857-10.24c-21.121,0-37.634,17.025-37.634,38.146s16.513,38.146,37.634,38.146c13.7,0,21.5-5.5,26.5-10.5,4.1-4.1,6.784-9.984,7.809-18.049H181.974V744.83h48.258a46.708,46.708,0,0,1,.769,8.96c0,10.752-2.944,24.065-12.417,33.538-9.216,9.6-20.993,14.72-36.609,14.72C153.044,802.048,128.723,778.5,128.723,749.565Z" transform="translate(-128 -129.821)"/>
  <path class="cls-1" d="M270,734.461c-18.689,0-33.922,14.208-33.922,33.793,0,19.457,15.232,33.793,33.922,33.793s33.921-14.336,33.921-33.793C303.921,748.669,288.689,734.461,270,734.461Zm0,54.274c-10.241,0-19.073-8.448-19.073-20.481,0-12.161,8.832-20.481,19.073-20.481s19.072,8.32,19.072,20.481C289.073,780.287,280.241,788.735,270,788.735Z" transform="translate(-128 -129.821)"/>
  <path class="cls-1" d="M344,734.461c-18.689,0-33.922,14.208-33.922,33.793,0,19.457,15.232,33.793,33.922,33.793s33.922-14.336,33.922-33.793C377.922,748.669,362.688,734.461,344,734.461Zm0,54.274c-10.24,0-19.073-8.448-19.073-20.481,0-12.161,8.833-20.481,19.073-20.481s19.072,8.32,19.072,20.481C363.072,780.287,354.24,788.735,344,788.735Z" transform="translate(-128 -129.821)"/>
  <path class="cls-1" d="M434.83,736.509v5.5h-.512c-3.328-3.968-9.729-7.552-17.793-7.552-16.9,0-32.386,14.849-32.386,33.921,0,18.945,15.489,33.666,32.386,33.666,8.064,0,14.465-3.584,17.793-7.68h.512v4.864c0,12.929-6.912,19.841-18.049,19.841-9.088,0-14.721-6.528-17.024-12.032l-12.929,5.376a32.2,32.2,0,0,0,29.953,19.969c17.409,0,32.13-10.241,32.13-35.2V736.509Zm-17.024,52.227c-10.24,0-18.817-8.576-18.817-20.353,0-11.9,8.577-20.609,18.817-20.609,10.112,0,18.049,8.7,18.049,20.609C435.854,780.159,427.918,788.735,417.806,788.735Z" transform="translate(-128 -129.821)"/>
  <rect class="cls-1" x="331.151" y="570.846" width="14.849" height="99.333"/>
  <path class="cls-1" d="M514.706,788.735c-7.553,0-12.929-3.456-16.385-10.24l45.187-18.689-1.536-3.84c-2.816-7.552-11.393-21.5-28.93-21.5-17.409,0-31.873,13.7-31.873,33.793,0,18.945,14.336,33.793,33.537,33.793a33.615,33.615,0,0,0,28.161-14.977l-11.521-7.68C527.507,785.023,522.259,788.735,514.706,788.735Zm-1.152-41.218c5.889,0,10.881,2.944,12.545,7.168L495.89,767.23C495.5,754.174,506,747.518,513.554,747.518Z" transform="translate(-128 -129.821)"/>
</svg>
