<?xml version="1.0" encoding="utf-8"?>
<!-- Generator: Adobe Illustrator 14.0.0, SVG Export Plug-In . SVG Version: 6.00 Build 43363)  -->
<!DOCTYPE svg PUBLIC "-//W3C//DTD SVG 1.1//EN" "http://www.w3.org/Graphics/SVG/1.1/DTD/svg11.dtd">
<svg version="1.1" id="Layer_1" xmlns="http://www.w3.org/2000/svg" xmlns:xlink="http://www.w3.org/1999/xlink" x="0px" y="0px"
	 width="522px" height="288px" viewBox="0 0 522 288" enable-background="new 0 0 522 288" xml:space="preserve">
<g>
	<defs>
		<path id="SVGID_1_" d="M522,143.999C522,223.528,405.148,288,260.999,288C116.854,288,0,223.528,0,143.999S116.854,0,260.999,0
			C405.148,0,522,64.47,522,143.999z"/>
	</defs>
	<clipPath id="SVGID_2_">
		<use xlink:href="#SVGID_1_"  overflow="visible"/>
	</clipPath>
	<rect x="-85.5" y="-51.159" clip-path="url(#SVGID_2_)" fill="#DFE1DF" width="684" height="396"/>
	<g clip-path="url(#SVGID_2_)">
		
			<line fill="none" stroke="#260D0C" stroke-width="0.5356" stroke-miterlimit="10" x1="70.443" y1="164.35" x2="219.831" y2="16.325"/>
		
			<line fill="none" stroke="#260D0C" stroke-width="0.5356" stroke-miterlimit="10" x1="76.676" y1="164.35" x2="226.064" y2="16.325"/>
		
			<line fill="none" stroke="#260D0C" stroke-width="0.5356" stroke-miterlimit="10" x1="82.797" y1="164.35" x2="232.185" y2="16.325"/>
		
			<line fill="none" stroke="#260D0C" stroke-width="0.5356" stroke-miterlimit="10" x1="56.722" y1="159.552" x2="206.11" y2="11.526"/>
		
			<line fill="none" stroke="#260D0C" stroke-width="0.5356" stroke-miterlimit="10" x1="62.955" y1="159.552" x2="212.343" y2="11.526"/>
		
			<line fill="none" stroke="#260D0C" stroke-width="0.5356" stroke-miterlimit="10" x1="69.076" y1="159.552" x2="218.464" y2="11.526"/>
		
			<line fill="none" stroke="#260D0C" stroke-width="0.5356" stroke-miterlimit="10" x1="40.534" y1="157.106" x2="189.922" y2="9.082"/>
		
			<line fill="none" stroke="#260D0C" stroke-width="0.5356" stroke-miterlimit="10" x1="46.767" y1="157.106" x2="196.155" y2="9.082"/>
		
			<line fill="none" stroke="#260D0C" stroke-width="0.5356" stroke-miterlimit="10" x1="52.888" y1="157.106" x2="202.276" y2="9.082"/>
		
			<line fill="none" stroke="#260D0C" stroke-width="0.5356" stroke-miterlimit="10" x1="26.813" y1="152.309" x2="176.201" y2="4.283"/>
		
			<line fill="none" stroke="#260D0C" stroke-width="0.5356" stroke-miterlimit="10" x1="33.046" y1="152.309" x2="182.434" y2="4.283"/>
		
			<line fill="none" stroke="#260D0C" stroke-width="0.5356" stroke-miterlimit="10" x1="39.167" y1="152.309" x2="188.555" y2="4.283"/>
		
			<line fill="none" stroke="#260D0C" stroke-width="0.5356" stroke-miterlimit="10" x1="8.652" y1="151.907" x2="158.04" y2="3.883"/>
		
			<line fill="none" stroke="#260D0C" stroke-width="0.5356" stroke-miterlimit="10" x1="14.885" y1="151.907" x2="164.272" y2="3.883"/>
		
			<line fill="none" stroke="#260D0C" stroke-width="0.5356" stroke-miterlimit="10" x1="21.006" y1="151.907" x2="170.394" y2="3.883"/>
		
			<line fill="none" stroke="#260D0C" stroke-width="0.5356" stroke-miterlimit="10" x1="-5.069" y1="147.109" x2="144.318" y2="-0.915"/>
		
			<line fill="none" stroke="#260D0C" stroke-width="0.5356" stroke-miterlimit="10" x1="-8.382" y1="144.161" x2="141.006" y2="-3.864"/>
		
			<line fill="none" stroke="#260D0C" stroke-width="0.5356" stroke-miterlimit="10" x1="1.164" y1="147.109" x2="150.552" y2="-0.915"/>
		
			<line fill="none" stroke="#260D0C" stroke-width="0.5356" stroke-miterlimit="10" x1="7.285" y1="147.109" x2="156.672" y2="-0.915"/>
		
			<line fill="none" stroke="#260D0C" stroke-width="0.5356" stroke-miterlimit="10" x1="164.48" y1="181.638" x2="313.867" y2="33.613"/>
		
			<line fill="none" stroke="#260D0C" stroke-width="0.5356" stroke-miterlimit="10" x1="169.183" y1="183.188" x2="318.571" y2="35.163"/>
		
			<line fill="none" stroke="#260D0C" stroke-width="0.5356" stroke-miterlimit="10" x1="175.304" y1="183.188" x2="324.692" y2="35.163"/>
		
			<line fill="none" stroke="#260D0C" stroke-width="0.5356" stroke-miterlimit="10" x1="150.759" y1="176.839" x2="300.146" y2="28.815"/>
		
			<line fill="none" stroke="#260D0C" stroke-width="0.5356" stroke-miterlimit="10" x1="155.462" y1="178.39" x2="304.85" y2="30.364"/>
		
			<line fill="none" stroke="#260D0C" stroke-width="0.5356" stroke-miterlimit="10" x1="161.583" y1="178.39" x2="310.971" y2="30.364"/>
		
			<line fill="none" stroke="#260D0C" stroke-width="0.5356" stroke-miterlimit="10" x1="134.571" y1="174.396" x2="283.959" y2="26.371"/>
		
			<line fill="none" stroke="#260D0C" stroke-width="0.5356" stroke-miterlimit="10" x1="139.274" y1="175.945" x2="288.661" y2="27.92"/>
		
			<line fill="none" stroke="#260D0C" stroke-width="0.5356" stroke-miterlimit="10" x1="145.395" y1="175.945" x2="294.782" y2="27.92"/>
		
			<line fill="none" stroke="#260D0C" stroke-width="0.5356" stroke-miterlimit="10" x1="120.85" y1="169.597" x2="270.237" y2="21.572"/>
		
			<line fill="none" stroke="#260D0C" stroke-width="0.5356" stroke-miterlimit="10" x1="125.553" y1="171.146" x2="274.939" y2="23.122"/>
		
			<line fill="none" stroke="#260D0C" stroke-width="0.5356" stroke-miterlimit="10" x1="131.673" y1="171.146" x2="281.061" y2="23.122"/>
		
			<line fill="none" stroke="#260D0C" stroke-width="0.5356" stroke-miterlimit="10" x1="102.689" y1="169.196" x2="252.077" y2="21.172"/>
		
			<line fill="none" stroke="#260D0C" stroke-width="0.5356" stroke-miterlimit="10" x1="107.392" y1="170.747" x2="256.78" y2="22.722"/>
		
			<line fill="none" stroke="#260D0C" stroke-width="0.5356" stroke-miterlimit="10" x1="113.513" y1="170.747" x2="262.899" y2="22.722"/>
		
			<line fill="none" stroke="#260D0C" stroke-width="0.5356" stroke-miterlimit="10" x1="88.967" y1="164.398" x2="238.355" y2="16.374"/>
		
			<line fill="none" stroke="#260D0C" stroke-width="0.5356" stroke-miterlimit="10" x1="93.67" y1="165.948" x2="243.059" y2="17.923"/>
		
			<line fill="none" stroke="#260D0C" stroke-width="0.5356" stroke-miterlimit="10" x1="99.792" y1="165.948" x2="249.179" y2="17.923"/>
		<rect x="-89.1" y="35.062" fill="none" width="691.201" height="214.029"/>
	</g>
	
		<line clip-path="url(#SVGID_2_)" fill="none" stroke="#260D0C" stroke-width="0.5356" stroke-miterlimit="10" x1="262.139" y1="201.672" x2="411.526" y2="53.647"/>
	
		<line clip-path="url(#SVGID_2_)" fill="none" stroke="#260D0C" stroke-width="0.5356" stroke-miterlimit="10" x1="268.373" y1="201.672" x2="417.761" y2="53.647"/>
	
		<line clip-path="url(#SVGID_2_)" fill="none" stroke="#260D0C" stroke-width="0.5356" stroke-miterlimit="10" x1="274.494" y1="201.672" x2="423.882" y2="53.647"/>
	
		<line clip-path="url(#SVGID_2_)" fill="none" stroke="#260D0C" stroke-width="0.5356" stroke-miterlimit="10" x1="248.417" y1="196.874" x2="397.806" y2="48.849"/>
	
		<line clip-path="url(#SVGID_2_)" fill="none" stroke="#260D0C" stroke-width="0.5356" stroke-miterlimit="10" x1="254.652" y1="196.874" x2="404.04" y2="48.849"/>
	
		<line clip-path="url(#SVGID_2_)" fill="none" stroke="#260D0C" stroke-width="0.5356" stroke-miterlimit="10" x1="260.772" y1="196.874" x2="410.16" y2="48.849"/>
	
		<line clip-path="url(#SVGID_2_)" fill="none" stroke="#260D0C" stroke-width="0.5356" stroke-miterlimit="10" x1="232.229" y1="194.429" x2="381.616" y2="46.405"/>
	
		<line clip-path="url(#SVGID_2_)" fill="none" stroke="#260D0C" stroke-width="0.5356" stroke-miterlimit="10" x1="238.463" y1="194.429" x2="387.851" y2="46.405"/>
	
		<line clip-path="url(#SVGID_2_)" fill="none" stroke="#260D0C" stroke-width="0.5356" stroke-miterlimit="10" x1="244.583" y1="194.429" x2="393.972" y2="46.405"/>
	
		<line clip-path="url(#SVGID_2_)" fill="none" stroke="#260D0C" stroke-width="0.5356" stroke-miterlimit="10" x1="218.508" y1="189.631" x2="367.895" y2="41.606"/>
	
		<line clip-path="url(#SVGID_2_)" fill="none" stroke="#260D0C" stroke-width="0.5356" stroke-miterlimit="10" x1="224.741" y1="189.631" x2="374.129" y2="41.606"/>
	
		<line clip-path="url(#SVGID_2_)" fill="none" stroke="#260D0C" stroke-width="0.5356" stroke-miterlimit="10" x1="230.862" y1="189.631" x2="380.25" y2="41.606"/>
	
		<line clip-path="url(#SVGID_2_)" fill="none" stroke="#260D0C" stroke-width="0.5356" stroke-miterlimit="10" x1="200.347" y1="189.231" x2="349.734" y2="41.206"/>
	
		<line clip-path="url(#SVGID_2_)" fill="none" stroke="#260D0C" stroke-width="0.5356" stroke-miterlimit="10" x1="206.581" y1="189.231" x2="355.969" y2="41.206"/>
	
		<line clip-path="url(#SVGID_2_)" fill="none" stroke="#260D0C" stroke-width="0.5356" stroke-miterlimit="10" x1="212.702" y1="189.231" x2="362.09" y2="41.206"/>
	
		<line clip-path="url(#SVGID_2_)" fill="none" stroke="#260D0C" stroke-width="0.5356" stroke-miterlimit="10" x1="186.626" y1="184.433" x2="336.013" y2="36.408"/>
	<g clip-path="url(#SVGID_2_)">
		
			<line fill="none" stroke="#260D0C" stroke-width="0.5356" stroke-miterlimit="10" x1="183.313" y1="181.483" x2="332.7" y2="33.458"/>
		<rect x="-89.1" y="35.062" fill="none" width="691.201" height="214.029"/>
	</g>
	
		<line clip-path="url(#SVGID_2_)" fill="none" stroke="#260D0C" stroke-width="0.5356" stroke-miterlimit="10" x1="192.859" y1="184.433" x2="342.247" y2="36.408"/>
	
		<line clip-path="url(#SVGID_2_)" fill="none" stroke="#260D0C" stroke-width="0.5356" stroke-miterlimit="10" x1="198.98" y1="184.433" x2="348.368" y2="36.408"/>
	
		<line clip-path="url(#SVGID_2_)" fill="none" stroke="#260D0C" stroke-width="0.5356" stroke-miterlimit="10" x1="356.175" y1="218.961" x2="505.563" y2="70.936"/>
	
		<line clip-path="url(#SVGID_2_)" fill="none" stroke="#260D0C" stroke-width="0.5356" stroke-miterlimit="10" x1="360.879" y1="220.511" x2="510.267" y2="72.486"/>
	
		<line clip-path="url(#SVGID_2_)" fill="none" stroke="#260D0C" stroke-width="0.5356" stroke-miterlimit="10" x1="367" y1="220.511" x2="516.388" y2="72.486"/>
	
		<line clip-path="url(#SVGID_2_)" fill="none" stroke="#260D0C" stroke-width="0.5356" stroke-miterlimit="10" x1="342.453" y1="214.162" x2="491.841" y2="66.138"/>
	
		<line clip-path="url(#SVGID_2_)" fill="none" stroke="#260D0C" stroke-width="0.5356" stroke-miterlimit="10" x1="347.157" y1="215.712" x2="496.545" y2="67.688"/>
	
		<line clip-path="url(#SVGID_2_)" fill="none" stroke="#260D0C" stroke-width="0.5356" stroke-miterlimit="10" x1="353.278" y1="215.712" x2="502.666" y2="67.688"/>
	
		<line clip-path="url(#SVGID_2_)" fill="none" stroke="#260D0C" stroke-width="0.5356" stroke-miterlimit="10" x1="326.267" y1="211.718" x2="475.654" y2="63.694"/>
	
		<line clip-path="url(#SVGID_2_)" fill="none" stroke="#260D0C" stroke-width="0.5356" stroke-miterlimit="10" x1="330.969" y1="213.268" x2="480.356" y2="65.243"/>
	
		<line clip-path="url(#SVGID_2_)" fill="none" stroke="#260D0C" stroke-width="0.5356" stroke-miterlimit="10" x1="337.089" y1="213.268" x2="486.478" y2="65.243"/>
	
		<line clip-path="url(#SVGID_2_)" fill="none" stroke="#260D0C" stroke-width="0.5356" stroke-miterlimit="10" x1="312.545" y1="206.92" x2="461.933" y2="58.895"/>
	
		<line clip-path="url(#SVGID_2_)" fill="none" stroke="#260D0C" stroke-width="0.5356" stroke-miterlimit="10" x1="317.247" y1="208.469" x2="466.635" y2="60.444"/>
	
		<line clip-path="url(#SVGID_2_)" fill="none" stroke="#260D0C" stroke-width="0.5356" stroke-miterlimit="10" x1="323.368" y1="208.469" x2="472.756" y2="60.444"/>
	
		<line clip-path="url(#SVGID_2_)" fill="none" stroke="#260D0C" stroke-width="0.5356" stroke-miterlimit="10" x1="416.929" y1="232.44" x2="566.316" y2="84.416"/>
	
		<line clip-path="url(#SVGID_2_)" fill="none" stroke="#260D0C" stroke-width="0.5356" stroke-miterlimit="10" x1="426.189" y1="232.44" x2="575.578" y2="84.416"/>
	
		<line clip-path="url(#SVGID_2_)" fill="none" stroke="#260D0C" stroke-width="0.5356" stroke-miterlimit="10" x1="403.207" y1="227.642" x2="552.596" y2="79.617"/>
	
		<line clip-path="url(#SVGID_2_)" fill="none" stroke="#260D0C" stroke-width="0.5356" stroke-miterlimit="10" x1="409.441" y1="227.642" x2="558.83" y2="79.617"/>
	
		<line clip-path="url(#SVGID_2_)" fill="none" stroke="#260D0C" stroke-width="0.5356" stroke-miterlimit="10" x1="415.563" y1="227.642" x2="564.95" y2="79.617"/>
	
		<line clip-path="url(#SVGID_2_)" fill="none" stroke="#260D0C" stroke-width="0.5356" stroke-miterlimit="10" x1="387.021" y1="225.197" x2="536.408" y2="77.173"/>
	
		<line clip-path="url(#SVGID_2_)" fill="none" stroke="#260D0C" stroke-width="0.5356" stroke-miterlimit="10" x1="393.253" y1="225.197" x2="542.641" y2="77.173"/>
	
		<line clip-path="url(#SVGID_2_)" fill="none" stroke="#260D0C" stroke-width="0.5356" stroke-miterlimit="10" x1="399.373" y1="225.197" x2="548.762" y2="77.173"/>
	
		<line clip-path="url(#SVGID_2_)" fill="none" stroke="#260D0C" stroke-width="0.5356" stroke-miterlimit="10" x1="373.299" y1="220.399" x2="522.687" y2="72.375"/>
	
		<line clip-path="url(#SVGID_2_)" fill="none" stroke="#260D0C" stroke-width="0.5356" stroke-miterlimit="10" x1="379.531" y1="220.399" x2="528.919" y2="72.375"/>
	
		<line clip-path="url(#SVGID_2_)" fill="none" stroke="#260D0C" stroke-width="0.5356" stroke-miterlimit="10" x1="385.652" y1="220.399" x2="535.04" y2="72.375"/>
	
		<line clip-path="url(#SVGID_2_)" fill="none" stroke="#260D0C" stroke-width="0.5356" stroke-miterlimit="10" x1="294.385" y1="206.521" x2="443.772" y2="58.495"/>
	
		<line clip-path="url(#SVGID_2_)" fill="none" stroke="#260D0C" stroke-width="0.5356" stroke-miterlimit="10" x1="299.087" y1="208.069" x2="448.475" y2="60.045"/>
	
		<line clip-path="url(#SVGID_2_)" fill="none" stroke="#260D0C" stroke-width="0.5356" stroke-miterlimit="10" x1="305.207" y1="208.069" x2="454.595" y2="60.045"/>
	
		<line clip-path="url(#SVGID_2_)" fill="none" stroke="#260D0C" stroke-width="0.5356" stroke-miterlimit="10" x1="280.663" y1="201.722" x2="430.051" y2="53.696"/>
	
		<line clip-path="url(#SVGID_2_)" fill="none" stroke="#260D0C" stroke-width="0.5356" stroke-miterlimit="10" x1="285.365" y1="203.271" x2="434.753" y2="55.246"/>
	
		<line clip-path="url(#SVGID_2_)" fill="none" stroke="#260D0C" stroke-width="0.5356" stroke-miterlimit="10" x1="291.486" y1="203.271" x2="440.874" y2="55.246"/>
	<g clip-path="url(#SVGID_2_)">
		<path fill="#DFE1DF" d="M-36.861,248.14h624.905V-9.428H-36.861V248.14z M186.447,97.294l-0.538,3.408l-0.18,1.704l-0.448,2.601
			c0,0-0.269,1.076-0.359,1.524s-0.179,0.897-0.179,1.256s-0.179,1.525-0.179,1.525l-1.704,3.498l-0.269,1.255
			c0,0-0.718,1.436-0.898,1.705c-0.179,0.269-0.985,0.896-0.985,0.896l-0.628,0.627l-1.524,2.601l-0.09,0.807l-0.269,1.973
			l-0.628,1.256l-1.434,1.345l-1.256,1.525l-0.896,0.538l-1.883,1.435l-2.781,0.896l-3.945-0.178l-0.628-0.538l-0.807-0.538
			l-0.986-0.718l-2.063,0.807l-0.538-0.627l-0.627-1.345l0.269-1.525l0.178-1.973l14.619-33.452l0.358-0.448l1.525-0.538
			l1.254-0.269l2.153-0.09l1.883,0.718l1.614,0.807l1.256,0.627c0,0,1.166,1.167,1.256,1.614s0.269,1.525,0.269,1.884
			c0,0.358,0.179,1.436,0.179,1.974S186.447,97.294,186.447,97.294 M227.97,116.666l-0.358,1.255l-1.345,0.718
			c0,0-0.897,0.449-1.167,0.538s-0.986,0.269-0.986,0.269h-1.256h-1.256h-1.255l-1.614-0.269l-1.167-0.538l-1.255-1.256
			l-1.076-0.807l-0.449-0.358l-0.449-0.358l-1.704-3.498l-1.076-2.512l-0.538-1.435l-1.166-2.242l-0.987-1.076l-0.627-0.628
			l-0.269-0.717l0.089-0.538v-0.987v-0.987l-0.269-0.896l-0.627-1.076l-1.256-2.602l-1.256-2.421l-0.896-1.973l0.18-1.703
			l0.358-0.808l0.449-0.18l1.255,0.089l1.076,0.09l0.987,0.538l1.794,1.346l1.345,0.538l0.717,0.447l0.987,0.628l0.986,0.538
			l1.256,0.807l0.986,0.627l1.166,0.359l1.525,0.269l1.345,0.36l0.807,0.807l0.627,0.985l0.718,1.077l0.987,1.705l0.448,0.807
			l1.076,1.973l0.628,1.794l0.807,1.255l0.807,2.512c0,0,0.448,0.627,0.717,0.896c0.269,0.269,0.449,0.627,0.449,0.627l-0.09,2.421
			v0.987l0.179,0.987L227.97,116.666z M521.32,136.575l-11.121-0.717c0,0-8.25-1.076-9.326-1.076s-6.816-1.077-6.816-1.077h-3.586
			l-3.947-0.716l-4.662-0.359h-4.305h-4.664l-8.609,0.717l-6.098-0.717l-6.1-0.359l-5.738-0.717l-7.177-0.358l-5.021-0.718
			l-6.098-0.717c0,0-6.457-0.36-7.533-0.36h-2.152c0,0-6.816-0.717-8.609-0.717s-5.381-0.718-5.381-0.718l-7.893-0.358l-6.457-1.794
			l-7.174-1.435h-6.1h-7.534h-5.021l-11.479-0.001l-6.1-0.358c0,0-3.945-0.358-6.457-1.076s-3.229-0.718-3.229-0.718
			s-3.586-0.717-5.738-0.717s-4.664-0.718-6.816-1.794s-3.945-1.076-5.021-1.435s-4.305-1.436-4.305-1.436l-6.1-1.435h-6.457
			l-3.586,0.718l-4.664,0.717h-4.665l-3.945-0.358c0,0-2.512-0.718-3.945-1.076s-3.229-1.076-3.229-1.076h-2.871l-4.662,1.076
			l-2.152-2.87l-2.152-1.435l-3.229-1.435l-5.382-2.152l-5.739-2.152l-4.664-2.512l-2.869-2.869l-2.512-2.152l-2.511-4.305
			l2.152-2.87l-1.435-1.076l-5.023,1.076l-3.946-0.358l-5.021-1.794l-5.023-1.076l-8.25-2.152l-3.945-2.152l-6.457-3.946
			l-5.022-2.152l-5.023-1.793l-2.869-1.794l-4.664-2.152l-5.739-2.87l-0.718-4.663l-2.152-3.947l-0.358,3.947v4.663v3.946v4.663
			l-1.076,1.794l-2.511,3.587l-3.229,3.229l-4.305,2.87l-3.946,3.587l-3.229,3.229l-4.305,3.946l-8.967,7.175l-5.023,3.229
			l-12.196,6.457l-7.893,2.869l-5.381,0.718l-6.815,2.152l-7.175,1.435l-6.457,2.87l-6.098,0.358h-5.74l-6.098-0.358l-5.381,0.718
			h-5.022l-12.914,1.793l-17.219,3.947l-7.892,1.794l-16.502,5.739l-7.534,2.511h-7.892l-4.305-1.793l7.174-6.457l20.089-6.817
			l25.112-5.021L64.3,118.28l24.752-9.327l16.859-9.686l11.121-5.74l15.067-7.175l8.968-9.327l8.25-5.021l8.25-2.87l15.067-7.892
			l6.816-5.022l6.457,1.435l6.457,2.87l13.273,8.251l9.686,5.381l21.166,8.968l21.523,7.175l21.165,8.968l24.753,7.175l22.959,5.022
			l1.499,0.203l-0.604-0.562l4.305-4.036l6.322-4.978l7.265-2.556l15.201-8.206l6.726-4.574l6.592-2.287l4.978-2.556l4.439-2.825
			l4.978-3.767l1.883-2.287l6.727-3.229l5.111-0.134h4.305l2.825,0.403l5.381,1.345l5.112,1.346l6.322,2.69l4.439,5.247l3.497,4.843
			l7.399,4.978l16.412,4.708l13.721,2.556l26.636,0.942l13.722,1.345l2.69,1.345l1.614,1.345v1.479l-3.229,0.942h-3.229
			l-3.095,0.269l-3.632,0.27l-2.959-0.404l-3.095-0.134l-3.901,1.21h-2.556h-3.229l-2.825-0.134l-2.959,0.134l-2.825-0.807
			l-2.959-0.538l-2.825,0.135l-2.556-0.673l-2.019-0.672l-2.825-0.942l-1.21,0.269l-1.346-0.538l-2.556-0.134l-3.363,0.269h-0.941
			l-3.229-0.135l-2.96-0.672l-2.286-0.808l-1.211-0.538l-1.48-0.807l-2.018-0.673l-1.883-0.269l-1.884-0.134l-3.229-0.942
			l-2.556-1.21l-3.229-1.077l-2.287-0.941l-2.69-1.076c0,0-1.211-0.672-1.884-1.211c-0.672-0.538-2.018-0.807-2.018-0.807
			l-2.287-1.21l-0.538-0.942l-1.21-1.21l-1.48-1.211l-0.672-0.269l-1.076-0.538h-1.48c-0.403,0-1.883-0.538-1.883-0.538l-1.749-1.21
			l-1.479-0.673l-2.557-1.076l-1.345-0.941l-1.076-0.135l-2.825,0.538l-1.345,0.404l-2.152,0.807l-1.614,0.941l-1.346,0.673
			c0,0-1.211,0.807-1.614,1.21c-0.403,0.404-0.808,1.076-0.808,1.076s-1.748,1.48-2.152,1.749c-0.403,0.269-2.824,1.076-2.824,1.076
			l-5.516,1.749l-2.69,0.135l-2.69,1.345l-1.884,0.403l-1.749,0.807c0,0-2.556,1.614-4.708,2.153
			c-0.567,0.142-0.872,0.225-1.036,0.274c0.118,0.021-0.416,0.126,0,0c-0.013-0.002-0.013-0.005-0.04-0.005
			c-0.403,0-2.018,0.808-2.556,1.211c-0.538,0.404-1.076,0.538-1.614,0.807s-1.614,0.673-1.614,0.673l-1.346,0.807l-0.403,0.941
			l-2.825,2.287l2.96,0.538l3.767,1.076l1.479,0.134l2.018,0.538l4.709,0.807l1.479,0.269l2.421,0.135l3.363,0.134
			c0,0,0.808,0.269,1.614,0.538c0.808,0.269,0.538,0,1.076,0.135c0.538,0.134,1.48,0.538,1.48,0.538l1.479,0.403l2.152,0.135
			l1.211-0.135l1.748-0.134l1.48,0.269l1.479,1.479l1.749,1.211c0,0,1.345,0.807,1.749,1.076c0.403,0.269,0.807,0.269,0.807,0.269
			l3.229,0.941h3.632c0,0,1.211,0.135,1.614,0.135c0.404,0,1.614,0.135,1.614,0.135l2.557,1.076l1.21,1.346l0.808,0.807l2.69,2.691
			l-1.902,0.883l13.202,1.225l26.188,1.793l58.473,2.512l7.891,2.51l10.405,3.587l2.869,3.229L521.32,136.575z"/>
		<path fill="#260D0C" d="M2.381,137.894c10.646-2.694,21.677-4.949,32.04-8.649c3.091-1.104,6.182-2.208,9.273-3.312
			c2.257-0.806,4.87-0.9,7.226-1.272c2.537-0.401,5.079-0.785,7.613-1.207c2.563-0.427,5.764-0.432,8.176-1.389
			c6.8-2.696,13.611-5.368,20.455-7.952c2.84-1.072,5.788-1.946,8.568-3.164c3.421-1.498,6.632-3.583,9.813-5.521
			c3.772-2.298,7.498-4.673,11.208-7.07c1.609-1.04,3.225-2.393,4.966-3.206c2.743-1.28,5.38-2.535,7.974-4.091
			c1.101-0.661,2.275-1.137,3.449-1.66c1.034-0.459,1.876-1.289,2.746-2.005c2.541-2.092,5.082-4.185,7.623-6.277
			c-1.361,1.12,0.23-0.174,0.531-0.404c0.775-0.594,1.549-1.188,2.324-1.782c0.581-0.445,1.163-0.891,1.744-1.336
			c0.486-0.373-1.008,0.28-0.48,0.185c0.331-0.06,0.661-0.119,0.992-0.178c1.837-0.331,3.674-0.662,5.511-0.992
			c1.1-0.198,2.374-0.248,3.322-0.899l8.157-5.608c0.579-0.398-2.506,0.285-0.522,0.285h2.839c2.085,0,3.258-0.591,4.661-2.112
			c0.284-0.308,0.568-0.616,0.852-0.923c0.604-0.654-0.962,0.59-0.065,0.038c0.656-0.403,1.311-0.807,1.967-1.21
			c1.431-0.88,2.665-2.301,3.908-3.411l1.627-1.453c-0.441,0.394-2.003,0.92-0.341,0.378c2.229-0.727,4.669-1.211,6.963-0.549
			c2.375,0.686,4.93,3.176,6.844,4.731c1.223,0.994,2.579,1.638,3.975,2.368c2.183,1.143,4.244,2.504,6.394,3.708
			c2.374,1.329,5.032,2.548,7.247,4.13c2.185,1.56,4.118,2.827,6.582,3.838c3.479,1.427,6.958,2.854,10.437,4.282
			c0.807,0.331,1.498,0.605,2.352,0.776c1.559,0.312-0.383-0.471,0.535,0.115c0.719,0.459,1.44,0.919,2.16,1.378
			c2.468,1.575,4.896,3.604,7.755,4.366c6.032,1.608,12.156,2.751,18.272,4.002c0.682,0.139,1.363,0.277,2.044,0.419
			c0.87,0.182,1.74,0.363,2.61,0.544c0.382,0.08,0.764,0.159,1.146,0.239c0.76,0.158-1.012-0.551-0.188-0.099
			c2.507,1.378,4.975,2.897,7.569,4.102c2.813,1.306,5.39,2.655,8.04,4.264l1.302,0.791c0.303,0.184,2.965,1.154,1.686,0.401
			c1.215,0.714,2.443,1.407,3.629,2.169c2.911,1.873,5.71,2.193,9.089,2.772c2.62,0.45,5.231,0.95,7.847,1.431
			c5.558,1.023,10.894,2.628,16.539,3.293c0.93,0.109,1.858,0.219,2.787,0.328c1.542,0.181-0.56-0.134,0.242,0.052
			c1.794,0.417,3.588,0.834,5.382,1.251c1.999,0.465,3.983,0.759,6.017,1.06c6.281,0.931,12.62,2.262,18.974,2.489
			c5.34,0.191,10.643,0.929,15.985,1.024c1.894,0.034,3.786,0.067,5.679,0.102c0.545,0.01,1.09,0.02,1.635,0.029
			c-1.495-0.027,0.473,0.116,1.152,0.245c2.97,0.565,5.967,0.954,8.957,1.39c2.743,0.4,5.495,0.72,8.246,1.058
			c1.417,0.174,2.833,0.348,4.25,0.522c-1.188-0.146-0.404-0.053,0.339,0.054c1.091,0.156,2.182,0.312,3.273,0.467
			c5.937,0.848,11.745,0.68,17.729,0.579c1.136-0.019,2.276,0.155,3.406,0.257c0.314,0.028,0.63,0.057,0.945,0.086
			c-1.461-0.133-0.616-0.085-0.301-0.042c1.025,0.141,2.051,0.283,3.076,0.424c3.084,0.426,6.181,0.685,9.281,0.973
			c5.584,0.52,11.157,1.096,16.746,1.575c4.606,0.395,9.215,0.646,13.838,0.721c5.145,0.084,10.402-0.284,15.525,0.046
			c4.915,0.317,9.79,1.301,14.697,1.546c5.217,0.261,10.424,0.311,15.642,0.504c4.166,0.154,4.151-6.303,0-6.458
			c-5.415-0.201-10.998,0.128-16.38-0.545c-5.352-0.669-10.878-1.736-16.286-1.587c-11.947,0.331-23.726-0.401-35.622-1.421
			c-2.412-0.207-4.818-0.499-7.226-0.752c-1.367-0.144-2.738-0.255-4.107-0.382c-0.89-0.083-1.779-0.166-2.669-0.249
			c-1.732-0.161,0.409,0.096-0.557-0.038c-3.15-0.435-6.281-0.831-9.448-1.118c-3.029-0.275-6.245,0.097-9.286,0.148
			c-0.893,0.015-1.739-0.004-2.631-0.07c-0.912-0.068-1.825-0.135-2.737-0.203c-1.714-0.127,0.824,0.169-0.709-0.05
			c-2.832-0.405-5.662-0.817-8.502-1.166c-1.878-0.231-3.756-0.461-5.634-0.692c-0.68-0.083-1.358-0.167-2.038-0.25
			c-1.201-0.148,1.168,0.171-0.157-0.022c-2.88-0.42-5.79-0.744-8.649-1.288c-5.479-1.042-10.985-0.65-16.526-1.097
			c-2.965-0.239-5.947-0.602-8.921-0.708c-1.57-0.056-3.142-0.112-4.713-0.168c1.466,0.052,0.64,0.09,0.215,0.027l-1.904-0.282
			c-5.877-0.871-11.963-1.357-17.753-2.704c-2.939-0.684-5.855-1.489-8.855-1.842c-1.632-0.192-3.264-0.384-4.896-0.576
			c1.771,0.208-0.244-0.089-0.629-0.162c-1.111-0.21-2.222-0.421-3.333-0.631c-5.143-0.974-10.166-2.37-15.337-3.256
			c-1.669-0.286-3.338-0.572-5.008-0.858c-0.424-0.073-0.857-0.123-1.271-0.241c-0.357-0.103-1.364-0.669-0.375-0.033
			c-0.459-0.295-0.918-0.59-1.377-0.886c-1.161-0.747-2.35-1.439-3.54-2.139c-0.606-0.357-1.204-0.625-1.896-0.779
			c-0.439-0.098-1.408-0.596-0.319,0.065c-0.301-0.183-0.602-0.365-0.902-0.548c-5.097-3.095-10.51-5.583-15.74-8.459
			c-1.956-1.076-4.343-1.257-6.517-1.701c-3.594-0.735-7.188-1.471-10.782-2.206c-2.368-0.485-4.685-0.995-7.02-1.618
			c-0.749-0.2-1.499-0.399-2.248-0.599c0.039,0.01,0.927,0.501-0.059-0.128c-1.613-1.03-3.226-2.059-4.839-3.088
			c-0.989-0.631-1.978-1.263-2.967-1.894c-0.94-0.601-2.21-0.539-3.244-0.963l-10.091-4.14c-1.046-0.43-2.093-0.859-3.14-1.288
			c1.331,0.545,0.087-0.139-0.407-0.492c-0.82-0.585-1.64-1.171-2.459-1.757c-2.17-1.55-4.736-2.748-7.062-4.05
			c-2.15-1.204-4.211-2.577-6.392-3.719l-2.407-1.261c-1.498-0.784,0.206,0.389-0.602-0.276c-2.46-2.028-5.056-3.898-7.782-5.55
			c-4.24-2.568-11.761-1.738-15.459,1.564c-0.941,0.84-1.882,1.68-2.823,2.521c-0.37,0.33-0.739,0.661-1.11,0.991
			c-0.787,0.703,0.861-0.548-0.016-0.008c-1.917,1.18-3.25,2.396-4.773,4.047c0.761-0.315,1.522-0.63,2.283-0.945h-4.5
			c-1.523,0-2.396,0.608-3.576,1.42c-1.567,1.078-3.135,2.155-4.703,3.233c-0.628,0.432-1.255,0.863-1.883,1.294
			c-1.155,0.794,0.468,0.034-0.136,0.142l-4.921,0.886c-1.228,0.221-3.455,0.188-4.511,0.999c-2.123,1.627-4.3,3.202-6.366,4.902
			c-2.701,2.224-5.401,4.448-8.102,6.672c-0.502,0.414-1.228,0.603-0.136,0.117c-0.728,0.324-1.456,0.647-2.183,0.971
			c-1.317,0.586-2.512,1.356-3.748,2.098c-1.99,1.194-4.361,1.789-6.287,3.061c-2.209,1.458-4.432,2.897-6.66,4.328
			c-3.819,2.453-7.662,4.871-11.558,7.203c-1.641,0.982-3.297,1.941-4.978,2.855c-0.646,0.351-1.3,0.686-1.96,1.007
			c-0.741,0.36-0.093,0.115-1.085,0.425c-7.562,2.369-14.927,5.563-22.297,8.46c-1.701,0.669-3.495,1.668-5.311,1.971
			c-2.756,0.459-5.51,0.94-8.27,1.376c-5.586,0.882-11.268,1.35-16.601,3.254c-12.708,4.538-25.722,7.753-38.793,11.062
			C-3.37,132.689-1.657,138.917,2.381,137.894"/>
		<path fill="#260D0C" d="M332.222,110.697l1.883-2.152c-0.475,0.277-0.949,0.554-1.425,0.831c1.227-0.351,2.453-0.701,3.68-1.051
			c1.737-0.497,2.683-2.508,3.631-3.93l-1.929,1.484c2.14-0.688,4.279-1.376,6.419-2.063c1.988-0.639,3.658-1.731,5.453-2.792
			c1.755-1.037,3.478-1.91,5.331-2.765c0.832-0.383,1.646-0.802,2.464-1.211c1.104-0.552,1.975-1.372,2.907-2.171
			c0.125-0.106,0.249-0.213,0.373-0.32c-0.475,0.277-0.949,0.554-1.424,0.83c3.162-1.302,6.28-2.646,9.381-4.092
			c-0.544,0.147-1.087,0.294-1.63,0.441c1.237-0.155,2.772-0.162,3.865-0.756c1.037-0.563,2.081-1.111,3.131-1.646
			c0.685-0.349,1.373-0.689,2.068-1.016c0.253-0.119,1.395-0.611,0.272-0.14c0.255-0.107,0.515-0.206,0.78-0.285
			c1.916-0.574,3.422-1.689,4.949-2.95c1.346-1.11,2.645-2.316,3.878-3.55c0.479-0.479,0.958-0.958,1.437-1.437
			c0.187-0.186,0.372-0.373,0.559-0.559c0.548-0.547-0.87,0.525-0.328,0.254c0.944-0.472,1.705-0.916,2.54-1.555
			c1.764-1.348,3.59-2.515,5.492-3.656c0.559-0.335-0.991,0.368-0.51,0.193c0.271-0.099,0.543-0.198,0.815-0.296
			c0.646-0.235,1.294-0.471,1.94-0.706c1.177-0.428,2.3-1.038,3.429-1.573c-0.543,0.147-1.086,0.294-1.629,0.441
			c2.139,0.065,4.278,0.13,6.417,0.195c0.814,0.024,1.628,0.049,2.442,0.074c0.378,0.011,0.767-0.041,1.144-0.062
			c0.316-0.018,0.634-0.036,0.95-0.053c0.954-0.053-0.97-0.211-0.321-0.103c1.034,0.172,1.896,0.409,2.882,0.768
			c-1.42-0.516-0.607-0.247-0.239-0.063c0.284,0.142,0.568,0.284,0.852,0.426c0.39,0.195,0.794,0.358,1.194,0.53
			c0.89,0.381,1.76,0.813,2.646,1.206c0.406,0.181,0.754,0.433,1.125,0.681c0.107,0.071,0.215,0.143,0.322,0.215
			c0.372,0.248-0.815-0.74-0.491-0.352c0.195,0.235,0.392,0.47,0.588,0.705c-0.277-0.475-0.554-0.95-0.831-1.425
			c0.37,1.109,0.736,2.059,1.781,2.755c0.588,0.393,1.135,0.717,1.823,0.929c0.993,0.306,1.934,0.538,2.956,0.723l-1.93-1.483
			c0.674,0.927,1.326,1.858,2.106,2.699c0.395,0.424,0.788,0.849,1.183,1.273c-0.158-0.17-0.665-0.944-0.275-0.294l0.596,0.992
			c0.641,1.068,1.454,1.982,2.257,2.931c0.75,0.887,2.006,1.57,2.937,2.256c0.139,0.102,0.277,0.205,0.416,0.307
			c-1.289-0.95-0.403-0.292-0.108-0.039c0.47,0.402,0.959,0.776,1.45,1.15c0.785,0.598,1.598,1.437,2.48,1.878
			c1.124,0.562,2.238,1.207,3.417,1.648c0.465,0.174,0.93,0.349,1.395,0.523c0.232,0.087,0.465,0.174,0.697,0.262
			c-0.813-0.305-0.847-0.365-0.222-0.076c4.128,1.905,8.586,3.033,12.913,4.399c1.05,0.332,2.352,0.254,3.44,0.391
			c1.057,0.132,2.113,0.264,3.17,0.396c0.998,0.125,2.081,0.006,3.087,0.006h0.634c0.489,0-1.206-0.239-0.603-0.069
			c0.617,0.173,1.235,0.346,1.853,0.519c1.91,0.535,3.863,0.896,5.797,1.342c0.953,0.22,1.906,0.444,2.858,0.668
			c0.808,0.19,1.647,0.229,2.448,0.439c1.126,0.296,2.349,0.775,3.526,0.719c0.95-0.045,1.903-0.12,2.855-0.12
			c1.936,0,4.002-0.179,5.929,0.023l1.564,0.165c0.213,0.022,0.426,0.044,0.639,0.067c0.514,0.054-1.291-0.271-0.38,0.003
			c1.068,0.32,1.966,0.406,3.066,0.324c1.785-0.132,3.436-0.132,5.225-0.049c3.371,0.157,6.735,0.139,10.11,0.139
			c1.76,0,3.229-1.469,3.229-3.229c0-1.76-1.469-3.229-3.229-3.229c-4.108,0-8.186-0.049-12.29-0.24
			c-0.791-0.037-1.562,0.041-2.353,0.099c-0.579,0.043-1.158,0.086-1.738,0.128c-0.637,0.047,1.166,0.27,0.482,0.065
			c-0.345-0.104-0.69-0.207-1.035-0.311c-1.081-0.325-2.394-0.296-3.514-0.415c-0.828-0.087-1.7,0-2.534,0
			c-2.118,0-4.215,0.033-6.33,0.134c1.051-0.05,0.993,0.155,0.413,0.003l-0.931-0.245c-0.421-0.111-0.849-0.261-1.279-0.328
			c-1.067-0.164-2.096-0.357-3.146-0.604c-1.928-0.454-3.854-0.907-5.797-1.295c-0.968-0.193-1.911-0.493-2.861-0.759
			c-1.099-0.308-2.105-0.402-3.243-0.402c-0.924,0-1.869,0.067-2.788-0.047c-0.991-0.124-1.982-0.265-2.977-0.37
			c-0.605-0.063-1.21-0.127-1.814-0.191c-0.199-0.021-0.397-0.042-0.597-0.063c1.487,0.157,0.735,0.08,0.276-0.065
			c-0.93-0.293-1.858-0.588-2.792-0.872c-2.18-0.664-4.348-1.359-6.515-2.063c-0.143-0.046-0.286-0.091-0.427-0.142
			c-0.474-0.171,0.841,0.363,0.26,0.111c-0.171-0.074-0.34-0.15-0.51-0.227c-0.7-0.314-1.392-0.669-2.11-0.939
			c-0.511-0.191-1.021-0.382-1.531-0.574c-0.196-0.074-0.394-0.147-0.591-0.221c1.435,0.538,0.641,0.262,0.276,0.08
			c-0.834-0.417-1.761-0.763-2.505-1.329c-0.512-0.391-1.024-0.781-1.536-1.171c-0.233-0.178-0.468-0.355-0.701-0.534
			c-0.071-0.054-0.143-0.109-0.215-0.164c-0.378-0.288,0.854,0.685,0.492,0.375c-0.967-0.829-1.978-1.584-3.003-2.34l-0.743-0.548
			c-0.437-0.321-0.341-0.527,0.32,0.255c-0.383-0.453-0.767-0.906-1.149-1.358c-0.3-0.354-0.511-0.885,0.177,0.261
			c-0.111-0.185-0.222-0.369-0.333-0.554l-0.869-1.449c-0.351-0.585-0.917-1.098-1.379-1.595c-0.215-0.231-0.43-0.462-0.645-0.694
			c-0.631-0.679,0.531,0.758,0.176,0.269c-0.322-0.442-0.644-0.884-0.966-1.327c-0.864-1.189-1.782-1.471-3.087-1.708
			c-0.414-0.075-0.806-0.206-1.208-0.33c-0.267-0.082-0.533-0.164-0.8-0.246c-0.407-0.125,1.003,0.507,0.595,0.234
			c-0.166-0.11-0.331-0.22-0.496-0.331c-0.07-0.046-0.14-0.093-0.209-0.14c0.494,0.643,0.988,1.286,1.483,1.93
			c-0.289-0.867-0.577-1.605-1.185-2.334c-0.49-0.589-0.998-1.048-1.641-1.476c-0.766-0.511-1.552-0.862-2.387-1.248
			c-2.021-0.933-4.017-1.922-6.108-2.683c-1.795-0.652-3.737-0.242-5.586-0.298c-2.521-0.076-5.041-0.152-7.562-0.229
			c-0.233-0.007-0.469-0.014-0.703-0.021c-0.904-0.027-1.789,0.515-2.595,0.896c-0.516,0.244-1.03,0.487-1.545,0.731
			c-0.065,0.031,1.148-0.458,0.454-0.205c-0.322,0.117-0.645,0.234-0.967,0.352c-1.103,0.401-2.186,0.766-3.194,1.372
			c-0.87,0.521-1.747,1.025-2.581,1.603c-0.855,0.592-1.683,1.203-2.509,1.835c-0.806,0.616-1.572,1.034-2.483,1.49
			c-1.06,0.529-1.97,1.786-2.79,2.606c-0.598,0.598-1.218,1.164-1.844,1.733c-0.677,0.615-1.34,1.248-2.038,1.838
			c-0.185,0.155-1.069,0.841-0.264,0.226c-0.392,0.299-0.798,0.576-1.216,0.836c-0.173,0.107-0.352,0.202-0.531,0.296
			c-0.61,0.318,0.711-0.249,0.115-0.06c-0.237,0.075-0.477,0.125-0.712,0.212c-2.589,0.951-5.054,2.33-7.472,3.647
			c0.544-0.147,1.087-0.294,1.63-0.441c-1.305,0.163-2.712,0.211-3.906,0.768c-1.113,0.52-2.227,1.039-3.34,1.558l-0.5,0.234
			c-0.412,0.192,1.081-0.449,0.583-0.244c-0.508,0.209-1.017,0.418-1.524,0.628c-0.978,0.402-1.955,0.805-2.933,1.208
			c-0.924,0.38-1.563,0.948-2.299,1.58c-0.247,0.211-0.493,0.422-0.739,0.634c-0.698,0.598,0.655-0.41,0.284-0.224
			c-0.875,0.437-1.74,0.903-2.628,1.313c-1.691,0.781-3.349,1.531-4.95,2.478c-1.418,0.837-2.835,1.675-4.253,2.513
			c-0.572,0.338,0.823-0.294,0.549-0.206c-0.171,0.055-0.342,0.11-0.513,0.165c-0.786,0.253-1.572,0.505-2.358,0.758
			c-1.498,0.481-2.996,0.963-4.493,1.444c-1.784,0.573-2.682,2.466-3.667,3.944l1.93-1.483c-1.205,0.344-2.41,0.688-3.614,1.032
			c-1.534,0.438-2.458,1.88-3.461,3.026c-1.157,1.323-1.306,3.26,0,4.566C328.837,111.879,331.062,112.022,332.222,110.697"/>
		<rect x="-89.1" y="33.091" fill="none" width="691.201" height="216"/>
	</g>
</g>
<g>
	<path fill="#260E0F" d="M261,7.053c68.544,0,132.877,14.667,181.147,41.299c23.112,12.751,41.194,27.518,53.744,43.888
		c12.645,16.493,19.056,33.908,19.056,51.76s-6.411,35.267-19.056,51.761c-12.55,16.37-30.632,31.136-53.744,43.888
		C393.877,266.28,329.544,280.947,261,280.947S128.123,266.28,79.853,239.648c-23.112-12.752-41.194-27.518-53.744-43.888
		C13.464,179.267,7.053,161.853,7.053,144s6.411-35.267,19.056-51.76c12.55-16.37,30.632-31.136,53.744-43.888
		C128.123,21.72,192.456,7.053,261,7.053 M261,0C116.854,0,0,64.471,0,144c0,79.529,116.854,144,261,144s261-64.471,261-144
		C522,64.471,405.146,0,261,0L261,0z"/>
</g>
<rect x="102.777" y="220.245" fill="#858482" width="113.504" height="5.168"/>
<rect x="296.486" y="220.245" fill="#858482" width="119.174" height="5.168"/>
<rect x="298.117" y="218.824" fill="#260D0C" width="119.174" height="5.168"/>
<rect x="104.197" y="218.824" fill="#260D0C" width="113.504" height="5.168"/>
<g>
	<g>
		<path fill="#858482" d="M249.338,236.406v7.501h-16.262l-2.403-4.826v-22.853l2.403-4.884h15.738v7.617l-4.768-2.5h-5.35
			l-0.64,1.396v19.712l0.64,1.221h5.815l-0.116,0.059L249.338,236.406z"/>
		<path fill="#858482" d="M255.967,243.907l-2.442-4.826v-22.853l2.384-4.884h17.037l2.442,4.826v22.91l-2.442,4.826H255.967z
			 M268.004,217.974l-0.698-1.512h-5.756l-0.64,1.396v19.712l0.581,1.221h5.931l0.582-1.221V217.974z"/>
		<path fill="#858482" d="M288.239,242.744l-1.105,1.163h-6.513l-1.104-1.104v-5.757l1.338-1.279h6.279l1.105,1.104V242.744z"/>
	</g>
	<g>
		<g>
			<path fill="#858482" d="M57.581,198.06c-1.433-2.732-2.149-4.097-3.581-6.824c0-12.656,0.001-25.312,0-37.968
				c1.432-3.304,2.148-4.954,3.581-8.253c10.6-1.983,15.91-2.903,26.546-4.606c1.438,2.771,2.157,4.157,3.595,6.933
				c0,12.681,0,25.36,0,38.041c-1.438,3.226-2.157,4.839-3.595,8.07C73.491,195.155,68.181,196.076,57.581,198.06z M76.943,151.892
				c-0.517-1.005-0.775-1.507-1.292-2.511c-3.819,0.645-5.728,0.972-9.542,1.652c-0.544,1.188-0.817,1.784-1.362,2.974
				c-0.001,10.887,0,21.772-0.001,32.659c0.487,0.913,0.731,1.371,1.219,2.284c3.93-0.701,5.896-1.043,9.83-1.706
				c0.459-1.078,0.69-1.617,1.149-2.694C76.943,173.664,76.944,162.777,76.943,151.892z"/>
			<path fill="#858482" d="M112.343,136.292c-1.442,3.221-2.164,4.831-3.605,8.057c-0.024,11.978-0.047,23.954-0.071,35.932
				c-0.346,0.835-0.519,1.25-0.865,2.085c4.093-0.558,6.14-0.826,10.237-1.343c2.884-1.879,4.329-2.812,7.215-4.67
				c0,4.547,0,6.821,0,11.368c-10.35,1.229-20.681,2.616-30.988,4.161c1.439-3.247,2.158-4.869,3.598-8.111
				c-0.001-12.63,0.002-25.259,0-37.889c-1.439-2.82-2.159-4.229-3.598-7.045C101.489,137.754,105.105,137.246,112.343,136.292z"/>
			<path fill="#858482" d="M130.234,187.14c1.444-3.165,2.166-4.748,3.61-7.908c0-12.655,0-25.31,0-37.965
				c-1.444-2.872-2.167-4.306-3.611-7.172c11.321-1.224,22.634-2.322,33.979-3.3c1.447,2.884,2.172,4.326,3.62,7.215
				c0,12.68,0,25.361,0,38.042c-1.448,3.112-2.173,4.672-3.62,7.789C152.867,184.817,141.555,185.916,130.234,187.14z
				 M156.977,141.706c-0.521-1.046-0.781-1.566-1.302-2.611c-4.89,0.434-7.335,0.666-12.221,1.158
				c0.492,1.042,0.738,1.563,1.229,2.605c0,10.887,0,21.772,0,32.659c-0.434,1.044-0.65,1.565-1.084,2.609
				c4.886-0.492,7.33-0.723,12.22-1.156c0.463-1.041,0.695-1.56,1.158-2.601C156.977,163.482,156.977,152.594,156.977,141.706z"/>
			<path fill="#858482" d="M221.089,158.042c0,6.092-0.001,9.139-0.001,15.23c-1.45,3.067-2.176,4.604-3.626,7.676
				c-10.731,0.304-16.097,0.525-26.819,1.109c0-4.547,0-6.821,0-11.368c2.898,1.357,4.348,2.041,7.247,3.419
				c5.247-0.249,7.871-0.355,13.12-0.537c0.551-1.11,0.826-1.666,1.377-2.775c0-2.758,0-4.135,0-6.893
				c-0.493-0.984-0.739-1.478-1.232-2.461c-6.757-2.192-10.134-3.26-16.888-5.341c-1.449-2.927-2.173-4.391-3.623-7.313
				c0-4.88-0.001-7.318-0.001-12.198c1.449-3.11,2.174-4.664,3.624-7.769c10.144-0.517,15.219-0.713,25.372-0.979
				c0,4.547,0,6.82,0,11.367c-2.9-1.439-4.352-2.154-7.251-3.573c-4.669,0.155-7.003,0.245-11.67,0.453
				c-0.551,1.116-0.827,1.674-1.378,2.791c0,1.546,0,2.319,0,3.865c0.493,0.978,0.739,1.467,1.232,2.445
				c6.755,2.122,10.134,3.21,16.892,5.443C218.912,153.596,219.639,155.077,221.089,158.042z"/>
			<path fill="#858482" d="M245.674,127.491c-1.451,3.032-2.176,4.551-3.627,7.588c-0.024,11.973-0.048,23.946-0.072,35.919
				c-0.348,0.79-0.522,1.184-0.87,1.974c4.12-0.021,6.179-0.023,10.299-0.004c2.901-1.502,4.352-2.246,7.253-3.728
				c0,4.547,0.001,6.821,0.001,11.368c-10.396-0.121-20.794-0.089-31.188,0.105c1.45-3.059,2.176-4.588,3.626-7.641
				c0-12.63,0-25.259,0-37.889c-1.45-3.009-2.176-4.513-3.626-7.517C234.75,127.533,238.392,127.497,245.674,127.491z"/>
			<path fill="#858482" d="M267.648,180.753c-1.45-3.03-2.175-4.547-3.625-7.572c0-12.654,0-25.309,0-37.963
				c1.45-3.006,2.176-4.509,3.626-7.51c10.733,0.221,16.1,0.4,26.825,0.901c1.449,3.068,2.175,4.605,3.624,7.678
				c0,12.68,0,25.361,0,38.042c-1.449,2.928-2.175,4.393-3.624,7.326C283.749,181.154,278.382,180.974,267.648,180.753z
				 M287.228,138.601c-0.522-1.112-0.782-1.667-1.305-2.778c-3.856-0.148-5.787-0.212-9.645-0.324
				c-0.551,1.075-0.825,1.612-1.376,2.688c0,10.888,0,21.775,0,32.663c0.493,1.014,0.739,1.517,1.232,2.531
				c3.974,0.114,5.959,0.183,9.932,0.336c0.464-0.982,0.697-1.471,1.161-2.453C287.228,160.377,287.228,149.489,287.228,138.601z"/>
			<path fill="#858482" d="M354.404,161.28c0.925,1.886,1.39,2.831,2.314,4.719c0,5.184,0,7.773,0,12.957
				c-1.445,2.845-2.169,4.271-3.614,7.122c-10.822-1.069-21.638-2.023-32.479-2.867c1.448-2.896,2.173-4.346,3.621-7.236
				c0-12.654,0-25.309,0-37.963c-1.448-3.141-2.173-4.71-3.621-7.846c10.842,0.844,21.657,1.798,32.479,2.866
				c1.445,3.151,2.169,4.729,3.614,7.885c0,3.971,0,5.957,0,9.928c-0.81,1.64-1.214,2.46-2.023,4.102
				c-2.369,1.053-3.555,1.583-5.926,2.649C351.024,159.063,352.15,159.8,354.404,161.28z M335.101,152.53
				c4.109,0.355,6.165,0.543,10.271,0.939c0.491-0.983,0.737-1.472,1.229-2.454c0-3.334,0-5.002,0-8.336
				c-0.521-1.142-0.783-1.712-1.304-2.854c-4.569-0.441-6.854-0.649-11.427-1.039c0.493,1.133,0.737,1.698,1.23,2.832
				C335.101,145.984,335.101,148.165,335.101,152.53z M346.601,163.669c-0.463-1.046-0.693-1.567-1.156-2.612
				c-4.136-0.399-6.205-0.59-10.344-0.948c0,5.668,0,8.504,0,14.172c-0.435,0.963-0.651,1.443-1.086,2.406
				c4.573,0.391,6.861,0.599,11.431,1.04c0.463-0.956,0.692-1.433,1.155-2.388C346.601,170.671,346.601,168.337,346.601,163.669z"/>
			<path fill="#858482" d="M396.953,166.671c0.922,1.925,1.382,2.888,2.303,4.814c0,5.184,0,7.775,0,12.959
				c-1.439,2.785-2.159,4.179-3.599,6.969c-10.781-1.521-21.56-2.927-32.369-4.225c1.444-2.836,2.167-4.252,3.61-7.082
				c0-12.654,0-25.31,0-37.964c-1.443-3.201-2.166-4.802-3.61-7.998c10.811,1.296,21.588,2.703,32.369,4.223
				c1.439,3.211,2.159,4.819,3.599,8.036c0,3.971,0,5.957,0,9.928c-0.807,1.606-1.209,2.409-2.016,4.018
				c-2.36,0.954-3.541,1.434-5.902,2.401C393.585,164.313,394.708,165.097,396.953,166.671z M377.72,157.116
				c4.096,0.527,6.142,0.799,10.233,1.367c0.49-0.963,0.734-1.443,1.224-2.405c0-3.334,0-4.999,0-8.333
				c-0.519-1.164-0.775-1.747-1.294-2.91c-4.553-0.632-6.833-0.936-11.391-1.517c0.491,1.153,0.736,1.732,1.228,2.887
				C377.72,150.57,377.72,152.751,377.72,157.116z M389.177,168.735c-0.461-1.064-0.689-1.598-1.15-2.662
				c-4.12-0.572-6.183-0.847-10.307-1.378c0,5.668,0,8.501,0,14.169c-0.433,0.944-0.649,1.416-1.083,2.361
				c4.558,0.582,6.838,0.884,11.391,1.517c0.461-0.937,0.688-1.401,1.149-2.337C389.177,175.737,389.177,173.403,389.177,168.735z"
				/>
			<path fill="#858482" d="M429.849,197.018c2.093,2.319,3.138,3.481,5.229,5.812c-1.833,1.961-2.749,2.946-4.584,4.916
				c-3.642-4.058-5.463-6.078-9.108-10.103c0.689-0.729,1.035-1.096,1.724-1.824c-5.653-0.986-8.483-1.46-14.146-2.366
				c-1.437-3.23-2.156-4.845-3.594-8.07c0-12.654,0-25.31,0-37.964c1.438-2.806,2.157-4.209,3.594-7.01
				c10.637,1.702,15.945,2.623,26.546,4.606c1.433,3.269,2.149,4.903,3.581,8.177c0,12.682,0,25.362,0,38.044
				c-1.432,2.728-2.148,4.092-3.581,6.824C433.245,197.637,432.113,197.428,429.849,197.018z M428.342,154.007
				c-0.516-1.184-0.772-1.776-1.289-2.96c-3.814-0.681-5.725-1.012-9.544-1.656c-0.546,0.999-0.818,1.5-1.364,2.5
				c0,10.887,0,21.772,0,32.659c0.488,1.082,0.734,1.624,1.223,2.707c3.935,0.663,5.899,1.003,9.829,1.705
				c0.459-0.918,0.687-1.378,1.146-2.296C428.342,175.779,428.342,164.894,428.342,154.007z"/>
		</g>
	</g>
</g>
<g>
	<g>
		<path fill="#260D0C" d="M251.325,234.23v7.501h-16.262l-2.403-4.826v-22.853l2.403-4.884h15.739v7.617l-4.768-2.5h-5.35
			l-0.64,1.396v19.712l0.64,1.221h5.814l-0.116,0.059L251.325,234.23z"/>
		<path fill="#260D0C" d="M257.953,241.731l-2.442-4.826v-22.853l2.384-4.884h17.037l2.442,4.826v22.91l-2.442,4.826H257.953z
			 M269.99,215.798l-0.698-1.512h-5.756l-0.64,1.396v19.712l0.581,1.221h5.931l0.582-1.221V215.798z"/>
		<path fill="#260D0C" d="M290.226,240.568l-1.105,1.163h-6.513l-1.104-1.104v-5.757l1.338-1.279h6.279l1.105,1.104V240.568z"/>
	</g>
	<g>
		<g>
			<path d="M60.581,195.885c-1.433-2.733-2.149-4.098-3.581-6.825c0-12.656-0.001-25.312,0-37.968
				c1.432-3.304,2.148-4.954,3.581-8.253c10.6-1.983,15.91-2.903,26.547-4.606c1.438,2.771,2.156,4.157,3.594,6.932
				c0,12.681,0,25.36,0,38.041c-1.438,3.226-2.157,4.841-3.595,8.072C76.491,192.981,71.181,193.901,60.581,195.885z
				 M79.943,149.715c-0.517-1.005-0.775-1.509-1.292-2.513c-3.819,0.645-5.728,0.975-9.542,1.655
				c-0.544,1.188-0.817,1.784-1.362,2.974c0,10.887,0,21.772,0,32.659c0.487,0.913,0.73,1.371,1.218,2.284
				c3.93-0.701,5.895-1.043,9.83-1.706c0.459-1.078,0.689-1.617,1.148-2.694C79.943,171.487,79.944,160.602,79.943,149.715z"/>
			<path d="M115.343,134.117c-1.442,3.221-2.163,4.83-3.604,8.056c-0.024,11.978-0.045,23.954-0.072,35.932
				c-0.346,0.835-0.519,1.25-0.864,2.085c4.093-0.558,6.141-0.824,10.237-1.341c2.885-1.879,4.327-2.813,7.214-4.672
				c0,4.547,0.001,6.821,0.001,11.368c-10.35,1.228-20.681,2.617-30.988,4.161c1.439-3.247,2.159-4.869,3.598-8.111
				c0-12.63-0.001-25.261,0-37.891c-1.439-2.82-2.159-4.228-3.598-7.043C104.489,135.579,108.105,135.07,115.343,134.117z"/>
			<path d="M133.234,184.964c1.444-3.165,2.166-4.748,3.61-7.908c0-12.654,0-25.31,0-37.964c-1.444-2.872-2.167-4.306-3.611-7.172
				c11.321-1.224,22.634-2.322,33.979-3.3c1.447,2.884,2.172,4.326,3.619,7.215c0,12.68,0.001,25.361,0,38.042
				c-1.447,3.112-2.171,4.671-3.619,7.788C155.868,182.642,144.555,183.739,133.234,184.964z M159.976,139.53
				c-0.521-1.046-0.781-1.567-1.301-2.612c-4.89,0.434-7.335,0.666-12.221,1.159c0.491,1.042,0.737,1.563,1.229,2.605
				c0,10.887,0,21.772,0.001,32.659c-0.434,1.044-0.651,1.565-1.084,2.609c4.886-0.492,7.33-0.724,12.219-1.157
				c0.463-1.041,0.695-1.559,1.159-2.6C159.976,161.307,159.976,150.418,159.976,139.53z"/>
			<path d="M224.088,155.866c0,6.092,0,9.139,0,15.23c-1.45,3.067-2.176,4.603-3.626,7.675c-10.731,0.304-16.098,0.525-26.82,1.109
				c0-4.547,0-6.82,0-11.367c2.898,1.357,4.348,2.041,7.247,3.419c5.247-0.249,7.871-0.355,13.12-0.537
				c0.551-1.11,0.827-1.666,1.378-2.775c0-2.758,0.001-4.136,0.001-6.894c-0.493-0.983-0.74-1.477-1.234-2.46
				c-6.757-2.192-10.134-3.26-16.888-5.341c-1.449-2.927-2.173-4.392-3.623-7.313c0-4.88-0.001-7.318-0.001-12.198
				c1.449-3.11,2.174-4.663,3.624-7.768c10.144-0.517,15.219-0.713,25.372-0.979c0,4.547,0,6.82,0,11.367
				c-2.9-1.439-4.351-2.156-7.251-3.575c-4.669,0.155-7.003,0.247-11.671,0.456c-0.551,1.116-0.826,1.673-1.377,2.79
				c0,1.546,0,2.32,0,3.866c0.493,0.978,0.738,1.467,1.231,2.445c6.755,2.122,10.134,3.21,16.892,5.443
				C221.912,151.42,222.638,152.901,224.088,155.866z"/>
			<path d="M248.674,125.315c-1.451,3.032-2.176,4.55-3.627,7.587c-0.024,11.974-0.045,23.946-0.072,35.92
				c-0.348,0.79-0.522,1.184-0.87,1.974c4.12-0.021,6.18-0.023,10.299-0.004c2.901-1.502,4.353-2.246,7.254-3.728
				c0,4.547,0,6.82,0,11.367c-10.396-0.122-20.794-0.089-31.189,0.105c1.45-3.059,2.176-4.587,3.626-7.64
				c-0.002-12.63,0-25.259,0-37.889c-1.451-3.009-2.176-4.513-3.626-7.517C237.75,125.357,241.392,125.321,248.674,125.315z"/>
			<path d="M270.649,178.576c-1.45-3.03-2.176-4.546-3.626-7.571c0-12.654,0-25.309,0-37.963c1.45-3.006,2.176-4.508,3.626-7.509
				c10.733,0.221,16.1,0.4,26.825,0.901c1.449,3.068,2.175,4.605,3.624,7.678c0,12.68,0,25.361,0,38.042
				c-1.449,2.928-2.175,4.393-3.624,7.325C286.749,178.978,281.383,178.797,270.649,178.576z M290.228,136.425
				c-0.522-1.112-0.782-1.665-1.305-2.776c-3.856-0.148-5.785-0.213-9.643-0.325c-0.551,1.075-0.827,1.611-1.378,2.688
				c0,10.888,0,21.776,0,32.664c0.493,1.014,0.739,1.519,1.232,2.533c3.974,0.114,5.959,0.181,9.932,0.334
				c0.464-0.982,0.697-1.471,1.161-2.453C290.228,158.201,290.228,147.313,290.228,136.425z"/>
			<path d="M357.404,159.104c0.925,1.886,1.39,2.831,2.314,4.719c0,5.184,0,7.774,0,12.958c-1.445,2.845-2.169,4.269-3.614,7.118
				c-10.823-1.066-21.638-2.022-32.48-2.865c1.448-2.896,2.174-4.344,3.622-7.234c0-12.655,0-25.31,0-37.965
				c-1.448-3.141-2.174-4.71-3.622-7.846c10.843,0.844,21.657,1.799,32.48,2.866c1.445,3.151,2.169,4.728,3.614,7.884
				c0,3.971,0,5.958,0,9.929c-0.81,1.64-1.214,2.46-2.023,4.102c-2.369,1.053-3.555,1.583-5.926,2.649
				C354.024,156.887,355.15,157.624,357.404,159.104z M338.101,150.354c4.109,0.355,6.165,0.546,10.271,0.942
				c0.491-0.983,0.737-1.475,1.229-2.457c0-3.334,0-5.002,0-8.336c-0.521-1.142-0.783-1.714-1.304-2.855
				c-4.569-0.441-6.854-0.647-11.427-1.038c0.493,1.133,0.737,1.698,1.23,2.832C338.101,143.808,338.101,145.989,338.101,150.354z
				 M349.601,161.493c-0.463-1.046-0.693-1.567-1.156-2.612c-4.136-0.399-6.205-0.59-10.344-0.948c0,5.668,0,8.506,0,14.174
				c-0.435,0.963-0.651,1.441-1.086,2.404c4.573,0.391,6.86,0.599,11.43,1.04c0.463-0.956,0.693-1.433,1.156-2.388
				C349.601,168.495,349.601,166.161,349.601,161.493z"/>
			<path d="M399.953,164.497c0.922,1.925,1.382,2.886,2.303,4.813c0,5.184,0,7.775,0,12.959c-1.439,2.785-2.159,4.18-3.599,6.97
				c-10.78-1.521-21.56-2.928-32.369-4.226c1.444-2.836,2.167-4.252,3.61-7.082c0-12.655,0-25.31,0-37.965
				c-1.443-3.201-2.166-4.801-3.61-7.997c10.81,1.296,21.588,2.703,32.369,4.223c1.439,3.211,2.159,4.818,3.599,8.035
				c0,3.971,0,5.957,0,9.928c-0.807,1.606-1.209,2.41-2.016,4.019c-2.36,0.954-3.541,1.434-5.902,2.401
				C396.585,162.138,397.708,162.923,399.953,164.497z M380.72,154.941c4.096,0.527,6.142,0.799,10.233,1.367
				c0.49-0.963,0.734-1.444,1.224-2.406c0-3.334,0-4.998,0-8.332c-0.519-1.164-0.775-1.748-1.294-2.911
				c-4.553-0.632-6.833-0.936-11.391-1.517c0.491,1.153,0.736,1.731,1.228,2.886C380.72,148.394,380.72,150.576,380.72,154.941z
				 M392.177,166.56c-0.461-1.064-0.689-1.598-1.15-2.662c-4.12-0.572-6.183-0.848-10.307-1.379c0,5.668,0,8.502,0,14.17
				c-0.433,0.944-0.651,1.416-1.084,2.361c4.558,0.582,6.838,0.884,11.391,1.517c0.461-0.937,0.689-1.401,1.15-2.337
				C392.177,173.562,392.177,171.228,392.177,166.56z"/>
			<path d="M432.849,194.844c2.093,2.319,3.139,3.479,5.229,5.81c-1.834,1.961-2.75,2.946-4.585,4.916
				c-3.642-4.058-5.463-6.078-9.108-10.103c0.689-0.729,1.035-1.095,1.724-1.823c-5.653-0.986-8.483-1.461-14.146-2.367
				c-1.437-3.23-2.155-4.845-3.593-8.07c0-12.655,0-25.31,0-37.965c1.438-2.806,2.156-4.208,3.593-7.008
				c10.637,1.703,15.946,2.623,26.547,4.606c1.433,3.269,2.148,4.903,3.58,8.177c0,12.682,0,25.362,0,38.044
				c-1.432,2.728-2.147,4.092-3.58,6.825C436.246,195.462,435.113,195.254,432.849,194.844z M431.342,151.831
				c-0.516-1.184-0.772-1.776-1.289-2.96c-3.814-0.681-5.725-1.012-9.544-1.656c-0.546,0.999-0.818,1.5-1.364,2.5
				c0,10.887,0,21.772,0,32.659c0.488,1.082,0.732,1.624,1.222,2.707c3.935,0.663,5.899,1.002,9.829,1.704
				c0.459-0.919,0.688-1.377,1.146-2.295C431.342,173.604,431.342,162.718,431.342,151.831z"/>
		</g>
	</g>
</g>
</svg>
