<?xml version="1.0" encoding="utf-8"?>
<!-- Generator: Adobe Illustrator 21.1.0, SVG Export Plug-In . SVG Version: 6.00 Build 0)  -->
<svg version="1.1" id="Layer_1" xmlns="http://www.w3.org/2000/svg" xmlns:xlink="http://www.w3.org/1999/xlink" x="0px" y="0px"
	 viewBox="0 0 216 216" style="enable-background:new 0 0 216 216;" xml:space="preserve">
<style type="text/css">
	.st0{fill:none;stroke:#1EBED4;stroke-width:3;stroke-miterlimit:10;}
</style>
<g>
	<circle class="st0" cx="113.7406006" cy="120.0669327" r="72"/>
	<path class="st0" d="M96.5731506,157.6624756c34.9197235,0,54.0193481-28.9307404,54.0193481-54.0193558
		c0-0.8217239,0-1.6397476-0.0555115-2.4540787c3.7156525-2.6875992,6.9230652-6.0153427,9.4720764-9.8274155
		c-3.4650269,1.5353775-7.1407776,2.5422821-10.9045563,2.9870987c3.9633331-2.3727188,6.9296265-6.1045837,8.3468323-10.501091
		c-3.7268066,2.2114639-7.8040314,3.7699966-12.0557098,4.6083374c-7.1901245-7.645462-19.2167282-8.014595-26.8621902-0.8244781
		c-4.9306946,4.6370316-7.0227966,11.5466766-5.492424,18.1399765C97.7757492,105.0061874,83.5531158,97.79599,73.9127121,85.935257
		c-5.0391083,8.6749496-2.4652252,19.7727737,5.8779449,25.344017c-3.0213623-0.0895538-5.9768448-0.9045944-8.6170349-2.3763504
		c0,0.0777359,0,0.1591644,0,0.240593c0.0024719,9.0374985,6.373024,16.8214874,15.231575,18.6110229
		c-2.7950974,0.762291-5.7277374,0.8737106-8.5726166,0.325737c2.4871979,7.7339478,9.6148605,13.0320892,17.7374725,13.1846619
		c-6.7228546,5.2835999-15.027771,8.1518707-23.5783997,8.1432495c-1.5105591-0.0029144-3.0196533-0.0943756-4.5195084-0.2739258
		c8.6823196,5.5717468,18.784668,8.5271606,29.1010056,8.5133972"/>
</g>
</svg>
